<mxfile host="65bd71144e" pages="4">
    <diagram name="Default" id="2cc2dc42-3aac-f2a9-1cec-7a8b7cbee084">
        <mxGraphModel dx="3593" dy="2400" grid="1" gridSize="10" guides="1" tooltips="1" connect="1" arrows="1" fold="1" page="0" pageScale="1" pageWidth="1100" pageHeight="850" background="none" math="0" shadow="0">
            <root>
                <mxCell id="0"/>
                <mxCell id="1" parent="0"/>
                <mxCell id="MF4QIWE3WVcb_NJHDxL0-27" value="" style="verticalLabelPosition=bottom;verticalAlign=top;html=1;shadow=0;dashed=0;strokeWidth=1;shape=mxgraph.android.phone2;strokeColor=#c0c0c0;fontSize=48;aspect=fixed;" parent="1" vertex="1">
                    <mxGeometry x="1960" y="-100" width="700" height="1365" as="geometry"/>
                </mxCell>
                <mxCell id="7026571954dc6520-1" value="" style="strokeWidth=1;shadow=0;dashed=0;align=center;html=1;shape=mxgraph.mockup.containers.browserWindow;rSize=0;strokeColor=none;mainText=,;recursiveResize=0;rounded=0;labelBackgroundColor=none;fontFamily=Verdana;fontSize=12;fillColor=#000000;rotatable=0;deletable=0;resizable=0;movable=0;" parent="1" vertex="1">
                    <mxGeometry x="25" y="15" width="1050" height="820" as="geometry"/>
                </mxCell>
                <mxCell id="7026571954dc6520-2" value="Default (Top)" style="strokeWidth=1;shadow=0;dashed=0;align=center;html=1;shape=mxgraph.mockup.containers.anchor;fontSize=17;fontColor=#666666;align=left;" parent="7026571954dc6520-1" vertex="1">
                    <mxGeometry x="60" y="12" width="110" height="26" as="geometry"/>
                </mxCell>
                <mxCell id="7026571954dc6520-3" value="https://www.default.com" style="strokeWidth=1;shadow=0;dashed=0;align=center;html=1;shape=mxgraph.mockup.containers.anchor;rSize=0;fontSize=17;fontColor=#666666;align=left;" parent="7026571954dc6520-1" vertex="1">
                    <mxGeometry x="130" y="60" width="250" height="26" as="geometry"/>
                </mxCell>
                <mxCell id="7026571954dc6520-4" value="&lt;b&gt;Website Name 0&lt;/b&gt;" style="text;html=1;points=[];align=left;verticalAlign=top;spacingTop=-4;fontSize=48;fontFamily=Lucida Console;fontColor=#FFFFFF;" parent="7026571954dc6520-1" vertex="1">
                    <mxGeometry x="80" y="230" width="440" height="60" as="geometry"/>
                </mxCell>
                <mxCell id="ETvA7B8Ki7r66DwpXjmp-8" value="" style="group;fillColor=#000000;strokeColor=default;fontColor=#F0F0F0;" parent="7026571954dc6520-1" vertex="1" connectable="0">
                    <mxGeometry x="20" y="290" width="1010" height="40" as="geometry"/>
                </mxCell>
                <mxCell id="ETvA7B8Ki7r66DwpXjmp-6" value="" style="rounded=1;whiteSpace=wrap;html=1;labelBackgroundColor=none;fillStyle=solid;fontSize=21;strokeColor=default;strokeWidth=0;fillColor=#000000;fontColor=#F0F0F0;" parent="ETvA7B8Ki7r66DwpXjmp-8" vertex="1">
                    <mxGeometry width="1010" height="40" as="geometry"/>
                </mxCell>
                <mxCell id="ETvA7B8Ki7r66DwpXjmp-7" value="Home" style="rounded=0;whiteSpace=wrap;html=1;labelBackgroundColor=none;fillStyle=solid;fontSize=21;strokeColor=default;strokeWidth=1;fillColor=#000000;fontColor=#F0F0F0;fontStyle=1" parent="ETvA7B8Ki7r66DwpXjmp-8" vertex="1">
                    <mxGeometry x="35" width="120" height="40" as="geometry"/>
                </mxCell>
                <mxCell id="ETvA7B8Ki7r66DwpXjmp-9" value="Git" style="rounded=0;whiteSpace=wrap;html=1;labelBackgroundColor=none;fillStyle=solid;fontSize=21;strokeColor=default;strokeWidth=1;fillColor=#000000;fontColor=#F0F0F0;fontStyle=1" parent="ETvA7B8Ki7r66DwpXjmp-8" vertex="1">
                    <mxGeometry x="155" width="120" height="40" as="geometry"/>
                </mxCell>
                <mxCell id="ETvA7B8Ki7r66DwpXjmp-10" value="About" style="rounded=0;whiteSpace=wrap;html=1;labelBackgroundColor=none;fillStyle=solid;fontSize=21;strokeColor=default;strokeWidth=1;fillColor=#000000;fontColor=#F0F0F0;fontStyle=1" parent="ETvA7B8Ki7r66DwpXjmp-8" vertex="1">
                    <mxGeometry x="275" width="120" height="40" as="geometry"/>
                </mxCell>
                <mxCell id="ETvA7B8Ki7r66DwpXjmp-11" value="Search" style="rounded=0;whiteSpace=wrap;html=1;labelBackgroundColor=none;fillStyle=solid;fontSize=21;strokeColor=default;strokeWidth=1;fillColor=#000000;fontColor=#F0F0F0;fontStyle=1" parent="ETvA7B8Ki7r66DwpXjmp-8" vertex="1">
                    <mxGeometry x="395" width="120" height="40" as="geometry"/>
                </mxCell>
                <mxCell id="ETvA7B8Ki7r66DwpXjmp-23" value="" style="strokeWidth=1;shadow=0;dashed=0;align=center;html=1;shape=mxgraph.mockup.containers.browserWindow;rSize=0;strokeColor=#666666;mainText=,;recursiveResize=0;rounded=0;labelBackgroundColor=none;fontFamily=Verdana;fontSize=12;fillColor=#000000;deletable=0;rotatable=0;resizable=0;movable=0;" parent="1" vertex="1">
                    <mxGeometry x="25" y="870" width="1050" height="820" as="geometry"/>
                </mxCell>
                <mxCell id="ETvA7B8Ki7r66DwpXjmp-24" value="Default (Scroll)" style="strokeWidth=1;shadow=0;dashed=0;align=center;html=1;shape=mxgraph.mockup.containers.anchor;fontSize=17;fontColor=#666666;align=left;" parent="ETvA7B8Ki7r66DwpXjmp-23" vertex="1">
                    <mxGeometry x="60" y="12" width="110" height="26" as="geometry"/>
                </mxCell>
                <mxCell id="ETvA7B8Ki7r66DwpXjmp-25" value="https://www.default.com" style="strokeWidth=1;shadow=0;dashed=0;align=center;html=1;shape=mxgraph.mockup.containers.anchor;rSize=0;fontSize=17;fontColor=#666666;align=left;" parent="ETvA7B8Ki7r66DwpXjmp-23" vertex="1">
                    <mxGeometry x="130" y="60" width="250" height="26" as="geometry"/>
                </mxCell>
                <mxCell id="ETvA7B8Ki7r66DwpXjmp-34" value="" style="group;fillColor=#000000;strokeColor=default;strokeWidth=1;fontColor=#F0F0F0;" parent="ETvA7B8Ki7r66DwpXjmp-23" vertex="1" connectable="0">
                    <mxGeometry y="110" width="1050" height="40" as="geometry"/>
                </mxCell>
                <mxCell id="ETvA7B8Ki7r66DwpXjmp-33" value="" style="rounded=0;whiteSpace=wrap;html=1;labelBackgroundColor=none;fillStyle=solid;fontSize=21;fontColor=#F0F0F0;strokeColor=default;strokeWidth=1;fillColor=#000000;" parent="ETvA7B8Ki7r66DwpXjmp-34" vertex="1">
                    <mxGeometry width="1050" height="40" as="geometry"/>
                </mxCell>
                <mxCell id="ETvA7B8Ki7r66DwpXjmp-32" value="Search" style="rounded=0;whiteSpace=wrap;html=1;labelBackgroundColor=none;fillStyle=solid;fontSize=21;strokeColor=default;strokeWidth=1;fillColor=#000000;fontColor=#F0F0F0;fontStyle=1" parent="ETvA7B8Ki7r66DwpXjmp-34" vertex="1">
                    <mxGeometry x="380" width="120" height="40" as="geometry"/>
                </mxCell>
                <mxCell id="ETvA7B8Ki7r66DwpXjmp-31" value="About" style="rounded=0;whiteSpace=wrap;html=1;labelBackgroundColor=none;fillStyle=solid;fontSize=21;strokeColor=default;strokeWidth=1;fillColor=#000000;fontColor=#F0F0F0;fontStyle=1" parent="ETvA7B8Ki7r66DwpXjmp-34" vertex="1">
                    <mxGeometry x="260" width="120" height="40" as="geometry"/>
                </mxCell>
                <mxCell id="ETvA7B8Ki7r66DwpXjmp-30" value="Git" style="rounded=0;whiteSpace=wrap;html=1;labelBackgroundColor=none;fillStyle=solid;fontSize=21;strokeColor=default;strokeWidth=1;fillColor=#000000;fontColor=#F0F0F0;fontStyle=1" parent="ETvA7B8Ki7r66DwpXjmp-34" vertex="1">
                    <mxGeometry x="140" width="120" height="40" as="geometry"/>
                </mxCell>
                <mxCell id="ETvA7B8Ki7r66DwpXjmp-29" value="Home" style="rounded=0;whiteSpace=wrap;html=1;labelBackgroundColor=none;fillStyle=solid;fontSize=21;strokeColor=default;strokeWidth=1;fillColor=#000000;fontColor=#F0F0F0;fontStyle=1" parent="ETvA7B8Ki7r66DwpXjmp-34" vertex="1">
                    <mxGeometry x="20" width="120" height="40" as="geometry"/>
                </mxCell>
                <mxCell id="MF4QIWE3WVcb_NJHDxL0-4" value="Large" style="text;html=1;strokeColor=none;fillColor=none;align=center;verticalAlign=middle;whiteSpace=wrap;rounded=0;fontSize=48;fontStyle=1" parent="1" vertex="1">
                    <mxGeometry x="430" y="-60" width="310" height="60" as="geometry"/>
                </mxCell>
                <mxCell id="MF4QIWE3WVcb_NJHDxL0-5" value="Medium" style="text;html=1;strokeColor=none;fillColor=none;align=center;verticalAlign=middle;whiteSpace=wrap;rounded=0;fontSize=48;fontStyle=1" parent="1" vertex="1">
                    <mxGeometry x="1349" y="-190" width="310" height="60" as="geometry"/>
                </mxCell>
                <mxCell id="MF4QIWE3WVcb_NJHDxL0-6" value="" style="strokeWidth=1;shadow=0;dashed=0;align=center;html=1;shape=mxgraph.mockup.containers.browserWindow;rSize=0;strokeColor=none;mainText=,;recursiveResize=0;rounded=0;labelBackgroundColor=none;fontFamily=Verdana;fontSize=12;fillColor=#000000;rotatable=0;deletable=0;resizable=1;movable=1;" parent="1" vertex="1">
                    <mxGeometry x="1120" y="15" width="768" height="820" as="geometry"/>
                </mxCell>
                <mxCell id="MF4QIWE3WVcb_NJHDxL0-7" value="Default (Top)" style="strokeWidth=1;shadow=0;dashed=0;align=center;html=1;shape=mxgraph.mockup.containers.anchor;fontSize=17;fontColor=#666666;align=left;" parent="MF4QIWE3WVcb_NJHDxL0-6" vertex="1">
                    <mxGeometry x="60" y="12" width="110" height="26" as="geometry"/>
                </mxCell>
                <mxCell id="MF4QIWE3WVcb_NJHDxL0-8" value="https://www.default.com" style="strokeWidth=1;shadow=0;dashed=0;align=center;html=1;shape=mxgraph.mockup.containers.anchor;rSize=0;fontSize=17;fontColor=#666666;align=left;" parent="MF4QIWE3WVcb_NJHDxL0-6" vertex="1">
                    <mxGeometry x="130" y="60" width="250" height="26" as="geometry"/>
                </mxCell>
                <mxCell id="MF4QIWE3WVcb_NJHDxL0-9" value="&lt;b&gt;Website Name 0&lt;/b&gt;" style="text;html=1;points=[];align=left;verticalAlign=top;spacingTop=-4;fontSize=48;fontFamily=Lucida Console;fontColor=#FFFFFF;" parent="MF4QIWE3WVcb_NJHDxL0-6" vertex="1">
                    <mxGeometry x="80" y="230" width="440" height="60" as="geometry"/>
                </mxCell>
                <mxCell id="MF4QIWE3WVcb_NJHDxL0-10" value="" style="group;fillColor=#000000;strokeColor=default;fontColor=#F0F0F0;" parent="MF4QIWE3WVcb_NJHDxL0-6" vertex="1" connectable="0">
                    <mxGeometry x="20" y="290" width="700" height="40" as="geometry"/>
                </mxCell>
                <mxCell id="MF4QIWE3WVcb_NJHDxL0-11" value="" style="rounded=1;whiteSpace=wrap;html=1;labelBackgroundColor=none;fillStyle=solid;fontSize=21;strokeColor=default;strokeWidth=0;fillColor=#000000;fontColor=#F0F0F0;" parent="MF4QIWE3WVcb_NJHDxL0-10" vertex="1">
                    <mxGeometry width="700" height="40" as="geometry"/>
                </mxCell>
                <mxCell id="MF4QIWE3WVcb_NJHDxL0-12" value="Home" style="rounded=0;whiteSpace=wrap;html=1;labelBackgroundColor=none;fillStyle=solid;fontSize=21;strokeColor=default;strokeWidth=1;fillColor=#000000;fontColor=#F0F0F0;fontStyle=1" parent="MF4QIWE3WVcb_NJHDxL0-10" vertex="1">
                    <mxGeometry x="24.257425742574256" width="83.16831683168316" height="40" as="geometry"/>
                </mxCell>
                <mxCell id="MF4QIWE3WVcb_NJHDxL0-13" value="Git" style="rounded=0;whiteSpace=wrap;html=1;labelBackgroundColor=none;fillStyle=solid;fontSize=21;strokeColor=default;strokeWidth=1;fillColor=#000000;fontColor=#F0F0F0;fontStyle=1" parent="MF4QIWE3WVcb_NJHDxL0-10" vertex="1">
                    <mxGeometry x="107.42574257425741" width="83.16831683168316" height="40" as="geometry"/>
                </mxCell>
                <mxCell id="MF4QIWE3WVcb_NJHDxL0-14" value="About" style="rounded=0;whiteSpace=wrap;html=1;labelBackgroundColor=none;fillStyle=solid;fontSize=21;strokeColor=default;strokeWidth=1;fillColor=#000000;fontColor=#F0F0F0;fontStyle=1" parent="MF4QIWE3WVcb_NJHDxL0-10" vertex="1">
                    <mxGeometry x="190.59405940594058" width="83.16831683168316" height="40" as="geometry"/>
                </mxCell>
                <mxCell id="MF4QIWE3WVcb_NJHDxL0-15" value="Search" style="rounded=0;whiteSpace=wrap;html=1;labelBackgroundColor=none;fillStyle=solid;fontSize=21;strokeColor=default;strokeWidth=1;fillColor=#000000;fontColor=#F0F0F0;fontStyle=1" parent="MF4QIWE3WVcb_NJHDxL0-10" vertex="1">
                    <mxGeometry x="273.76237623762376" width="83.16831683168316" height="40" as="geometry"/>
                </mxCell>
                <mxCell id="MF4QIWE3WVcb_NJHDxL0-16" value="" style="strokeWidth=1;shadow=0;dashed=0;align=center;html=1;shape=mxgraph.mockup.containers.browserWindow;rSize=0;strokeColor=none;mainText=,;recursiveResize=0;rounded=0;labelBackgroundColor=none;fontFamily=Verdana;fontSize=12;fillColor=#000000;rotatable=0;deletable=0;resizable=1;movable=1;" parent="1" vertex="1">
                    <mxGeometry x="1990" y="15" width="640" height="1125" as="geometry"/>
                </mxCell>
                <mxCell id="MF4QIWE3WVcb_NJHDxL0-17" value="Default (Top)" style="strokeWidth=1;shadow=0;dashed=0;align=center;html=1;shape=mxgraph.mockup.containers.anchor;fontSize=17;fontColor=#666666;align=left;" parent="MF4QIWE3WVcb_NJHDxL0-16" vertex="1">
                    <mxGeometry x="60" y="12" width="110" height="26" as="geometry"/>
                </mxCell>
                <mxCell id="MF4QIWE3WVcb_NJHDxL0-18" value="https://www.default.com" style="strokeWidth=1;shadow=0;dashed=0;align=center;html=1;shape=mxgraph.mockup.containers.anchor;rSize=0;fontSize=17;fontColor=#666666;align=left;" parent="MF4QIWE3WVcb_NJHDxL0-16" vertex="1">
                    <mxGeometry x="130" y="60" width="250" height="26" as="geometry"/>
                </mxCell>
                <mxCell id="MF4QIWE3WVcb_NJHDxL0-19" value="&lt;b&gt;Website Name 0&lt;/b&gt;" style="text;html=1;points=[];align=left;verticalAlign=top;spacingTop=-4;fontSize=48;fontFamily=Lucida Console;fontColor=#FFFFFF;" parent="MF4QIWE3WVcb_NJHDxL0-16" vertex="1">
                    <mxGeometry x="80" y="230" width="440" height="60" as="geometry"/>
                </mxCell>
                <mxCell id="MF4QIWE3WVcb_NJHDxL0-20" value="" style="group;fillColor=#000000;strokeColor=default;fontColor=#F0F0F0;" parent="MF4QIWE3WVcb_NJHDxL0-16" vertex="1" connectable="0">
                    <mxGeometry x="20" y="290" width="600" height="40" as="geometry"/>
                </mxCell>
                <mxCell id="MF4QIWE3WVcb_NJHDxL0-21" value="" style="rounded=1;whiteSpace=wrap;html=1;labelBackgroundColor=none;fillStyle=solid;fontSize=21;strokeColor=default;strokeWidth=0;fillColor=#000000;fontColor=#F0F0F0;" parent="MF4QIWE3WVcb_NJHDxL0-20" vertex="1">
                    <mxGeometry width="600" height="40" as="geometry"/>
                </mxCell>
                <mxCell id="MF4QIWE3WVcb_NJHDxL0-22" value="Home" style="rounded=0;whiteSpace=wrap;html=1;labelBackgroundColor=none;fillStyle=solid;fontSize=21;strokeColor=default;strokeWidth=1;fillColor=#000000;fontColor=#F0F0F0;fontStyle=1" parent="MF4QIWE3WVcb_NJHDxL0-20" vertex="1">
                    <mxGeometry x="20.79207920792079" width="71.28712871287128" height="40" as="geometry"/>
                </mxCell>
                <mxCell id="MF4QIWE3WVcb_NJHDxL0-23" value="Git" style="rounded=0;whiteSpace=wrap;html=1;labelBackgroundColor=none;fillStyle=solid;fontSize=21;strokeColor=default;strokeWidth=1;fillColor=#000000;fontColor=#F0F0F0;fontStyle=1" parent="MF4QIWE3WVcb_NJHDxL0-20" vertex="1">
                    <mxGeometry x="92.07920792079206" width="71.28712871287128" height="40" as="geometry"/>
                </mxCell>
                <mxCell id="MF4QIWE3WVcb_NJHDxL0-24" value="About" style="rounded=0;whiteSpace=wrap;html=1;labelBackgroundColor=none;fillStyle=solid;fontSize=21;strokeColor=default;strokeWidth=1;fillColor=#000000;fontColor=#F0F0F0;fontStyle=1" parent="MF4QIWE3WVcb_NJHDxL0-20" vertex="1">
                    <mxGeometry x="163.36633663366334" width="71.28712871287128" height="40" as="geometry"/>
                </mxCell>
                <mxCell id="MF4QIWE3WVcb_NJHDxL0-25" value="Search" style="rounded=0;whiteSpace=wrap;html=1;labelBackgroundColor=none;fillStyle=solid;fontSize=21;strokeColor=default;strokeWidth=1;fillColor=#000000;fontColor=#F0F0F0;fontStyle=1" parent="MF4QIWE3WVcb_NJHDxL0-20" vertex="1">
                    <mxGeometry x="234.65346534653463" width="71.28712871287128" height="40" as="geometry"/>
                </mxCell>
                <mxCell id="MF4QIWE3WVcb_NJHDxL0-26" value="Small/Mobile" style="text;html=1;strokeColor=none;fillColor=none;align=center;verticalAlign=middle;whiteSpace=wrap;rounded=0;fontSize=48;fontStyle=1" parent="1" vertex="1">
                    <mxGeometry x="2120" y="-220" width="310" height="60" as="geometry"/>
                </mxCell>
            </root>
        </mxGraphModel>
    </diagram>
    <diagram id="BZ26fJqOSZ351FqlBqcI" name="Home">
        <mxGraphModel dx="2193" dy="2400" grid="1" gridSize="10" guides="1" tooltips="1" connect="1" arrows="1" fold="1" page="0" pageScale="1" pageWidth="1100" pageHeight="850" math="0" shadow="0">
            <root>
                <mxCell id="0"/>
                <mxCell id="1" parent="0"/>
                <mxCell id="J8Bmlv4COnUuJK6kGUX0-1" value="" style="verticalLabelPosition=bottom;verticalAlign=top;html=1;shadow=0;dashed=0;strokeWidth=1;shape=mxgraph.android.phone2;strokeColor=#c0c0c0;fontSize=48;" vertex="1" parent="1">
                    <mxGeometry x="3050" y="-170" width="700" height="2170" as="geometry"/>
                </mxCell>
                <mxCell id="RotAKIOWQn3kEK_RLMDK-1" value="" style="strokeWidth=1;shadow=0;dashed=0;align=center;html=1;shape=mxgraph.mockup.containers.browserWindow;rSize=0;strokeColor=#666666;mainText=,;recursiveResize=0;rounded=0;labelBackgroundColor=none;fontFamily=Verdana;fontSize=12;fillColor=#000000;deletable=0;rotatable=0;resizable=0;movable=0;" parent="1" vertex="1">
                    <mxGeometry x="1125" y="20" width="1050" height="1945" as="geometry"/>
                </mxCell>
                <mxCell id="RotAKIOWQn3kEK_RLMDK-2" value="Home" style="strokeWidth=1;shadow=0;dashed=0;align=center;html=1;shape=mxgraph.mockup.containers.anchor;fontSize=17;fontColor=#666666;align=left;" parent="RotAKIOWQn3kEK_RLMDK-1" vertex="1">
                    <mxGeometry x="60" y="12" width="110" height="26" as="geometry"/>
                </mxCell>
                <mxCell id="RotAKIOWQn3kEK_RLMDK-3" value="https://www.default.com" style="strokeWidth=1;shadow=0;dashed=0;align=center;html=1;shape=mxgraph.mockup.containers.anchor;rSize=0;fontSize=17;fontColor=#666666;align=left;" parent="RotAKIOWQn3kEK_RLMDK-1" vertex="1">
                    <mxGeometry x="130" y="60" width="250" height="26" as="geometry"/>
                </mxCell>
                <mxCell id="RotAKIOWQn3kEK_RLMDK-4" value="&lt;b&gt;Garrett Parker&lt;/b&gt;" style="text;html=1;points=[];align=left;verticalAlign=top;spacingTop=-4;fontSize=48;fontFamily=Lucida Console;fontColor=#FFFFFF;" parent="RotAKIOWQn3kEK_RLMDK-1" vertex="1">
                    <mxGeometry x="80" y="230" width="440" height="60" as="geometry"/>
                </mxCell>
                <mxCell id="RotAKIOWQn3kEK_RLMDK-5" value="" style="group" parent="RotAKIOWQn3kEK_RLMDK-1" vertex="1" connectable="0">
                    <mxGeometry x="20" y="290" width="1010" height="40" as="geometry"/>
                </mxCell>
                <mxCell id="RotAKIOWQn3kEK_RLMDK-6" value="" style="rounded=1;whiteSpace=wrap;html=1;labelBackgroundColor=none;fillStyle=solid;fontSize=21;strokeColor=#F0F0F0;strokeWidth=1;fillColor=#000000;" parent="RotAKIOWQn3kEK_RLMDK-5" vertex="1">
                    <mxGeometry width="1010" height="40" as="geometry"/>
                </mxCell>
                <mxCell id="RotAKIOWQn3kEK_RLMDK-7" value="Home" style="rounded=0;whiteSpace=wrap;html=1;labelBackgroundColor=none;fillStyle=solid;fontSize=21;strokeColor=default;strokeWidth=1;fillColor=#000000;fontColor=#FFFFFF;fontStyle=1" parent="RotAKIOWQn3kEK_RLMDK-5" vertex="1">
                    <mxGeometry x="35" width="120" height="40" as="geometry"/>
                </mxCell>
                <mxCell id="RotAKIOWQn3kEK_RLMDK-8" value="Git" style="rounded=0;whiteSpace=wrap;html=1;labelBackgroundColor=none;fillStyle=solid;fontSize=21;strokeColor=default;strokeWidth=1;fillColor=#000000;fontColor=#FFFFFF;fontStyle=1" parent="RotAKIOWQn3kEK_RLMDK-5" vertex="1">
                    <mxGeometry x="155" width="120" height="40" as="geometry"/>
                </mxCell>
                <mxCell id="RotAKIOWQn3kEK_RLMDK-9" value="About" style="rounded=0;whiteSpace=wrap;html=1;labelBackgroundColor=none;fillStyle=solid;fontSize=21;strokeColor=default;strokeWidth=1;fillColor=#000000;fontColor=#FFFFFF;fontStyle=1" parent="RotAKIOWQn3kEK_RLMDK-5" vertex="1">
                    <mxGeometry x="275" width="120" height="40" as="geometry"/>
                </mxCell>
                <mxCell id="RotAKIOWQn3kEK_RLMDK-10" value="Search" style="rounded=0;whiteSpace=wrap;html=1;labelBackgroundColor=none;fillStyle=solid;fontSize=21;strokeColor=default;strokeWidth=1;fillColor=#000000;fontColor=#FFFFFF;fontStyle=1" parent="RotAKIOWQn3kEK_RLMDK-5" vertex="1">
                    <mxGeometry x="395" width="120" height="40" as="geometry"/>
                </mxCell>
                <mxCell id="EfkvnAuYvDKbwv6GpP2w-1" value="" style="verticalLabelPosition=bottom;shadow=0;dashed=0;align=center;html=1;verticalAlign=top;strokeWidth=1;shape=mxgraph.mockup.graphics.simpleIcon;strokeColor=#FFFFFF;fillColor=#000000;" parent="RotAKIOWQn3kEK_RLMDK-1" vertex="1">
                    <mxGeometry y="360" width="1050" height="520" as="geometry"/>
                </mxCell>
                <mxCell id="WcSm3s4NTcXn34OC8jbk-1" value="WELCOME TEXT" style="text;html=1;strokeColor=none;fillColor=none;align=right;verticalAlign=middle;whiteSpace=wrap;rounded=0;fontSize=48;" parent="RotAKIOWQn3kEK_RLMDK-1" vertex="1">
                    <mxGeometry x="155" y="900" width="805" height="80" as="geometry"/>
                </mxCell>
                <mxCell id="WcSm3s4NTcXn34OC8jbk-4" value="" style="verticalLabelPosition=bottom;shadow=0;dashed=0;align=center;html=1;verticalAlign=top;strokeWidth=1;shape=mxgraph.mockup.graphics.simpleIcon;strokeColor=#FFFFFF;fillColor=#000000;fontSize=24;" parent="RotAKIOWQn3kEK_RLMDK-1" vertex="1">
                    <mxGeometry x="625" y="990" width="100" height="100" as="geometry"/>
                </mxCell>
                <mxCell id="WcSm3s4NTcXn34OC8jbk-5" value="" style="verticalLabelPosition=bottom;shadow=0;dashed=0;align=center;html=1;verticalAlign=top;strokeWidth=1;shape=mxgraph.mockup.graphics.simpleIcon;strokeColor=#FFFFFF;fillColor=#000000;fontSize=24;" parent="RotAKIOWQn3kEK_RLMDK-1" vertex="1">
                    <mxGeometry x="805" y="990" width="100" height="100" as="geometry"/>
                </mxCell>
                <mxCell id="WcSm3s4NTcXn34OC8jbk-6" value="" style="verticalLabelPosition=bottom;shadow=0;dashed=0;align=center;html=1;verticalAlign=top;strokeWidth=1;shape=mxgraph.mockup.graphics.simpleIcon;strokeColor=#FFFFFF;fillColor=#000000;fontSize=24;" parent="RotAKIOWQn3kEK_RLMDK-1" vertex="1">
                    <mxGeometry x="625" y="1290" width="100" height="100" as="geometry"/>
                </mxCell>
                <mxCell id="WcSm3s4NTcXn34OC8jbk-7" value="" style="verticalLabelPosition=bottom;shadow=0;dashed=0;align=center;html=1;verticalAlign=top;strokeWidth=1;shape=mxgraph.mockup.graphics.simpleIcon;strokeColor=#FFFFFF;fillColor=#000000;fontSize=24;" parent="RotAKIOWQn3kEK_RLMDK-1" vertex="1">
                    <mxGeometry x="625" y="1140" width="100" height="100" as="geometry"/>
                </mxCell>
                <mxCell id="WcSm3s4NTcXn34OC8jbk-8" value="" style="verticalLabelPosition=bottom;shadow=0;dashed=0;align=center;html=1;verticalAlign=top;strokeWidth=1;shape=mxgraph.mockup.graphics.simpleIcon;strokeColor=#FFFFFF;fillColor=#000000;fontSize=24;" parent="RotAKIOWQn3kEK_RLMDK-1" vertex="1">
                    <mxGeometry x="805" y="1290" width="100" height="100" as="geometry"/>
                </mxCell>
                <mxCell id="WcSm3s4NTcXn34OC8jbk-9" value="" style="verticalLabelPosition=bottom;shadow=0;dashed=0;align=center;html=1;verticalAlign=top;strokeWidth=1;shape=mxgraph.mockup.graphics.simpleIcon;strokeColor=#FFFFFF;fillColor=#000000;fontSize=24;" parent="RotAKIOWQn3kEK_RLMDK-1" vertex="1">
                    <mxGeometry x="805" y="1140" width="100" height="100" as="geometry"/>
                </mxCell>
                <mxCell id="WcSm3s4NTcXn34OC8jbk-10" value="" style="verticalLabelPosition=bottom;shadow=0;dashed=0;align=center;html=1;verticalAlign=top;strokeWidth=1;shape=mxgraph.mockup.graphics.simpleIcon;strokeColor=#FFFFFF;fillColor=#000000;fontSize=24;" parent="RotAKIOWQn3kEK_RLMDK-1" vertex="1">
                    <mxGeometry x="625" y="1440" width="100" height="100" as="geometry"/>
                </mxCell>
                <mxCell id="WcSm3s4NTcXn34OC8jbk-11" value="" style="verticalLabelPosition=bottom;shadow=0;dashed=0;align=center;html=1;verticalAlign=top;strokeWidth=1;shape=mxgraph.mockup.graphics.simpleIcon;strokeColor=#FFFFFF;fillColor=#000000;fontSize=24;" parent="RotAKIOWQn3kEK_RLMDK-1" vertex="1">
                    <mxGeometry x="805" y="1440" width="100" height="100" as="geometry"/>
                </mxCell>
                <mxCell id="IWDJGhpkWdd7LJOENWgl-2" value="WELCOME TEXT" style="text;html=1;strokeColor=none;fillColor=none;align=left;verticalAlign=middle;whiteSpace=wrap;rounded=0;fontSize=24;" vertex="1" parent="RotAKIOWQn3kEK_RLMDK-1">
                    <mxGeometry x="20" y="980" width="370" height="60" as="geometry"/>
                </mxCell>
                <mxCell id="IWDJGhpkWdd7LJOENWgl-3" value="WELCOME TEXT" style="text;html=1;strokeColor=none;fillColor=none;align=right;verticalAlign=middle;whiteSpace=wrap;rounded=0;fontSize=24;" vertex="1" parent="RotAKIOWQn3kEK_RLMDK-1">
                    <mxGeometry x="155" y="1040" width="370" height="60" as="geometry"/>
                </mxCell>
                <mxCell id="IWDJGhpkWdd7LJOENWgl-4" value="WELCOME TEXT" style="text;html=1;strokeColor=none;fillColor=none;align=left;verticalAlign=middle;whiteSpace=wrap;rounded=0;fontSize=24;" vertex="1" parent="RotAKIOWQn3kEK_RLMDK-1">
                    <mxGeometry x="20" y="1130" width="370" height="60" as="geometry"/>
                </mxCell>
                <mxCell id="IWDJGhpkWdd7LJOENWgl-5" value="WELCOME TEXT" style="text;html=1;strokeColor=none;fillColor=none;align=right;verticalAlign=middle;whiteSpace=wrap;rounded=0;fontSize=24;" vertex="1" parent="RotAKIOWQn3kEK_RLMDK-1">
                    <mxGeometry x="155" y="1190" width="370" height="60" as="geometry"/>
                </mxCell>
                <mxCell id="IWDJGhpkWdd7LJOENWgl-6" value="WELCOME TEXT" style="text;html=1;strokeColor=none;fillColor=none;align=left;verticalAlign=middle;whiteSpace=wrap;rounded=0;fontSize=24;" vertex="1" parent="RotAKIOWQn3kEK_RLMDK-1">
                    <mxGeometry x="20" y="1280" width="370" height="60" as="geometry"/>
                </mxCell>
                <mxCell id="IWDJGhpkWdd7LJOENWgl-7" value="WELCOME TEXT" style="text;html=1;strokeColor=none;fillColor=none;align=right;verticalAlign=middle;whiteSpace=wrap;rounded=0;fontSize=24;" vertex="1" parent="RotAKIOWQn3kEK_RLMDK-1">
                    <mxGeometry x="155" y="1340" width="370" height="60" as="geometry"/>
                </mxCell>
                <mxCell id="IWDJGhpkWdd7LJOENWgl-8" value="WELCOME TEXT" style="text;html=1;strokeColor=none;fillColor=none;align=left;verticalAlign=middle;whiteSpace=wrap;rounded=0;fontSize=24;" vertex="1" parent="RotAKIOWQn3kEK_RLMDK-1">
                    <mxGeometry x="20" y="1430" width="370" height="60" as="geometry"/>
                </mxCell>
                <mxCell id="IWDJGhpkWdd7LJOENWgl-9" value="WELCOME TEXT" style="text;html=1;strokeColor=none;fillColor=none;align=right;verticalAlign=middle;whiteSpace=wrap;rounded=0;fontSize=24;" vertex="1" parent="RotAKIOWQn3kEK_RLMDK-1">
                    <mxGeometry x="155" y="1490" width="370" height="60" as="geometry"/>
                </mxCell>
                <mxCell id="6nPG6ACvTtK4iJ2ix6W4-1" value="Large" style="text;html=1;strokeColor=none;fillColor=none;align=center;verticalAlign=middle;whiteSpace=wrap;rounded=0;fontSize=48;fontStyle=1" parent="1" vertex="1">
                    <mxGeometry x="1490" y="-55" width="310" height="60" as="geometry"/>
                </mxCell>
                <mxCell id="6nPG6ACvTtK4iJ2ix6W4-2" value="Medium" style="text;html=1;strokeColor=none;fillColor=none;align=center;verticalAlign=middle;whiteSpace=wrap;rounded=0;fontSize=48;fontStyle=1" parent="1" vertex="1">
                    <mxGeometry x="2460" y="-40" width="310" height="60" as="geometry"/>
                </mxCell>
                <mxCell id="6nPG6ACvTtK4iJ2ix6W4-3" value="Small/Mobile" style="text;html=1;strokeColor=none;fillColor=none;align=center;verticalAlign=middle;whiteSpace=wrap;rounded=0;fontSize=48;fontStyle=1" parent="1" vertex="1">
                    <mxGeometry x="3250" y="-40" width="310" height="60" as="geometry"/>
                </mxCell>
                <mxCell id="J8Bmlv4COnUuJK6kGUX0-2" value="" style="strokeWidth=1;shadow=0;dashed=0;align=center;html=1;shape=mxgraph.mockup.containers.browserWindow;rSize=0;strokeColor=none;mainText=,;recursiveResize=0;rounded=0;labelBackgroundColor=none;fontFamily=Verdana;fontSize=12;fillColor=#000000;rotatable=0;deletable=0;resizable=1;movable=1;" vertex="1" parent="1">
                    <mxGeometry x="2210" y="25" width="768" height="1605" as="geometry"/>
                </mxCell>
                <mxCell id="J8Bmlv4COnUuJK6kGUX0-3" value="Default (Top)" style="strokeWidth=1;shadow=0;dashed=0;align=center;html=1;shape=mxgraph.mockup.containers.anchor;fontSize=17;fontColor=#666666;align=left;" vertex="1" parent="J8Bmlv4COnUuJK6kGUX0-2">
                    <mxGeometry x="60" y="12" width="110" height="26" as="geometry"/>
                </mxCell>
                <mxCell id="J8Bmlv4COnUuJK6kGUX0-4" value="https://www.default.com" style="strokeWidth=1;shadow=0;dashed=0;align=center;html=1;shape=mxgraph.mockup.containers.anchor;rSize=0;fontSize=17;fontColor=#666666;align=left;" vertex="1" parent="J8Bmlv4COnUuJK6kGUX0-2">
                    <mxGeometry x="130" y="60" width="250" height="26" as="geometry"/>
                </mxCell>
                <mxCell id="J8Bmlv4COnUuJK6kGUX0-5" value="&lt;b&gt;Website Name 0&lt;/b&gt;" style="text;html=1;points=[];align=left;verticalAlign=top;spacingTop=-4;fontSize=48;fontFamily=Lucida Console;fontColor=#FFFFFF;" vertex="1" parent="J8Bmlv4COnUuJK6kGUX0-2">
                    <mxGeometry x="80" y="230" width="440" height="60" as="geometry"/>
                </mxCell>
                <mxCell id="J8Bmlv4COnUuJK6kGUX0-6" value="" style="group;fillColor=#000000;strokeColor=default;fontColor=#F0F0F0;" vertex="1" connectable="0" parent="J8Bmlv4COnUuJK6kGUX0-2">
                    <mxGeometry x="20" y="290" width="700" height="40" as="geometry"/>
                </mxCell>
                <mxCell id="J8Bmlv4COnUuJK6kGUX0-7" value="" style="rounded=1;whiteSpace=wrap;html=1;labelBackgroundColor=none;fillStyle=solid;fontSize=21;strokeColor=default;strokeWidth=0;fillColor=#000000;fontColor=#F0F0F0;" vertex="1" parent="J8Bmlv4COnUuJK6kGUX0-6">
                    <mxGeometry width="700" height="40" as="geometry"/>
                </mxCell>
                <mxCell id="J8Bmlv4COnUuJK6kGUX0-8" value="Home" style="rounded=0;whiteSpace=wrap;html=1;labelBackgroundColor=none;fillStyle=solid;fontSize=21;strokeColor=default;strokeWidth=1;fillColor=#000000;fontColor=#F0F0F0;fontStyle=1" vertex="1" parent="J8Bmlv4COnUuJK6kGUX0-6">
                    <mxGeometry x="24.257425742574256" width="83.16831683168316" height="40" as="geometry"/>
                </mxCell>
                <mxCell id="J8Bmlv4COnUuJK6kGUX0-9" value="Git" style="rounded=0;whiteSpace=wrap;html=1;labelBackgroundColor=none;fillStyle=solid;fontSize=21;strokeColor=default;strokeWidth=1;fillColor=#000000;fontColor=#F0F0F0;fontStyle=1" vertex="1" parent="J8Bmlv4COnUuJK6kGUX0-6">
                    <mxGeometry x="107.42574257425741" width="83.16831683168316" height="40" as="geometry"/>
                </mxCell>
                <mxCell id="J8Bmlv4COnUuJK6kGUX0-10" value="About" style="rounded=0;whiteSpace=wrap;html=1;labelBackgroundColor=none;fillStyle=solid;fontSize=21;strokeColor=default;strokeWidth=1;fillColor=#000000;fontColor=#F0F0F0;fontStyle=1" vertex="1" parent="J8Bmlv4COnUuJK6kGUX0-6">
                    <mxGeometry x="190.59405940594058" width="83.16831683168316" height="40" as="geometry"/>
                </mxCell>
                <mxCell id="J8Bmlv4COnUuJK6kGUX0-11" value="Search" style="rounded=0;whiteSpace=wrap;html=1;labelBackgroundColor=none;fillStyle=solid;fontSize=21;strokeColor=default;strokeWidth=1;fillColor=#000000;fontColor=#F0F0F0;fontStyle=1" vertex="1" parent="J8Bmlv4COnUuJK6kGUX0-6">
                    <mxGeometry x="273.76237623762376" width="83.16831683168316" height="40" as="geometry"/>
                </mxCell>
                <mxCell id="J8Bmlv4COnUuJK6kGUX0-12" value="" style="strokeWidth=1;shadow=0;dashed=0;align=center;html=1;shape=mxgraph.mockup.containers.browserWindow;rSize=0;strokeColor=none;mainText=,;recursiveResize=0;rounded=0;labelBackgroundColor=none;fontFamily=Verdana;fontSize=12;fillColor=#000000;rotatable=0;deletable=0;resizable=1;movable=1;" vertex="1" parent="1">
                    <mxGeometry x="3080" y="25" width="640" height="1765" as="geometry"/>
                </mxCell>
                <mxCell id="J8Bmlv4COnUuJK6kGUX0-13" value="Default (Top)" style="strokeWidth=1;shadow=0;dashed=0;align=center;html=1;shape=mxgraph.mockup.containers.anchor;fontSize=17;fontColor=#666666;align=left;" vertex="1" parent="J8Bmlv4COnUuJK6kGUX0-12">
                    <mxGeometry x="60" y="12" width="110" height="26" as="geometry"/>
                </mxCell>
                <mxCell id="J8Bmlv4COnUuJK6kGUX0-14" value="https://www.default.com" style="strokeWidth=1;shadow=0;dashed=0;align=center;html=1;shape=mxgraph.mockup.containers.anchor;rSize=0;fontSize=17;fontColor=#666666;align=left;" vertex="1" parent="J8Bmlv4COnUuJK6kGUX0-12">
                    <mxGeometry x="130" y="60" width="250" height="26" as="geometry"/>
                </mxCell>
                <mxCell id="J8Bmlv4COnUuJK6kGUX0-15" value="&lt;b&gt;Website Name 0&lt;/b&gt;" style="text;html=1;points=[];align=left;verticalAlign=top;spacingTop=-4;fontSize=48;fontFamily=Lucida Console;fontColor=#FFFFFF;" vertex="1" parent="J8Bmlv4COnUuJK6kGUX0-12">
                    <mxGeometry x="80" y="230" width="440" height="60" as="geometry"/>
                </mxCell>
                <mxCell id="J8Bmlv4COnUuJK6kGUX0-16" value="" style="group;fillColor=#000000;strokeColor=default;fontColor=#F0F0F0;" vertex="1" connectable="0" parent="J8Bmlv4COnUuJK6kGUX0-12">
                    <mxGeometry x="20" y="290" width="600" height="40" as="geometry"/>
                </mxCell>
                <mxCell id="J8Bmlv4COnUuJK6kGUX0-17" value="" style="rounded=1;whiteSpace=wrap;html=1;labelBackgroundColor=none;fillStyle=solid;fontSize=21;strokeColor=default;strokeWidth=0;fillColor=#000000;fontColor=#F0F0F0;" vertex="1" parent="J8Bmlv4COnUuJK6kGUX0-16">
                    <mxGeometry width="600" height="40" as="geometry"/>
                </mxCell>
                <mxCell id="J8Bmlv4COnUuJK6kGUX0-18" value="Home" style="rounded=0;whiteSpace=wrap;html=1;labelBackgroundColor=none;fillStyle=solid;fontSize=21;strokeColor=default;strokeWidth=1;fillColor=#000000;fontColor=#F0F0F0;fontStyle=1" vertex="1" parent="J8Bmlv4COnUuJK6kGUX0-16">
                    <mxGeometry x="20.79207920792079" width="71.28712871287128" height="40" as="geometry"/>
                </mxCell>
                <mxCell id="J8Bmlv4COnUuJK6kGUX0-19" value="Git" style="rounded=0;whiteSpace=wrap;html=1;labelBackgroundColor=none;fillStyle=solid;fontSize=21;strokeColor=default;strokeWidth=1;fillColor=#000000;fontColor=#F0F0F0;fontStyle=1" vertex="1" parent="J8Bmlv4COnUuJK6kGUX0-16">
                    <mxGeometry x="92.07920792079206" width="71.28712871287128" height="40" as="geometry"/>
                </mxCell>
                <mxCell id="J8Bmlv4COnUuJK6kGUX0-20" value="About" style="rounded=0;whiteSpace=wrap;html=1;labelBackgroundColor=none;fillStyle=solid;fontSize=21;strokeColor=default;strokeWidth=1;fillColor=#000000;fontColor=#F0F0F0;fontStyle=1" vertex="1" parent="J8Bmlv4COnUuJK6kGUX0-16">
                    <mxGeometry x="163.36633663366334" width="71.28712871287128" height="40" as="geometry"/>
                </mxCell>
                <mxCell id="J8Bmlv4COnUuJK6kGUX0-21" value="Search" style="rounded=0;whiteSpace=wrap;html=1;labelBackgroundColor=none;fillStyle=solid;fontSize=21;strokeColor=default;strokeWidth=1;fillColor=#000000;fontColor=#F0F0F0;fontStyle=1" vertex="1" parent="J8Bmlv4COnUuJK6kGUX0-16">
                    <mxGeometry x="234.65346534653463" width="71.28712871287128" height="40" as="geometry"/>
                </mxCell>
            </root>
        </mxGraphModel>
    </diagram>
    <diagram id="MnAOueP-gjswAJOH1rXe" name="Git">
        <mxGraphModel dx="394" dy="2800" grid="1" gridSize="10" guides="1" tooltips="1" connect="1" arrows="1" fold="1" page="0" pageScale="1" pageWidth="1100" pageHeight="850" math="0" shadow="0">
            <root>
                <mxCell id="0"/>
                <mxCell id="1" parent="0"/>
                <mxCell id="D6yRexzuO-gyGSE-mgvo-1" value="" style="verticalLabelPosition=bottom;verticalAlign=top;html=1;shadow=0;dashed=0;strokeWidth=1;shape=mxgraph.android.phone2;strokeColor=#c0c0c0;fontSize=48;aspect=fixed;" vertex="1" parent="1">
                    <mxGeometry x="4150" y="-940" width="700" height="1365" as="geometry"/>
                </mxCell>
                <mxCell id="3zx8RqzfI-NeWc129olj-7" value="" style="group;align=left;fillColor=none;" parent="1" vertex="1" connectable="0">
                    <mxGeometry x="2225" y="-830" width="1050" height="4010" as="geometry"/>
                </mxCell>
                <mxCell id="czB4FTOlfRZ4hpxABfKk-1" value="" style="strokeWidth=1;shadow=0;dashed=0;align=center;html=1;shape=mxgraph.mockup.containers.browserWindow;rSize=0;strokeColor=#666666;mainText=,;recursiveResize=0;rounded=0;labelBackgroundColor=none;fontFamily=Verdana;fontSize=12;fillColor=#050404;movable=0;resizable=1;rotatable=0;deletable=0;fontStyle=1" parent="3zx8RqzfI-NeWc129olj-7" vertex="1">
                    <mxGeometry width="1050" height="4010" as="geometry"/>
                </mxCell>
                <mxCell id="czB4FTOlfRZ4hpxABfKk-2" value="Git" style="strokeWidth=1;shadow=0;dashed=0;align=center;html=1;shape=mxgraph.mockup.containers.anchor;fontSize=17;fontColor=#666666;align=left;" parent="czB4FTOlfRZ4hpxABfKk-1" vertex="1">
                    <mxGeometry x="60" y="12" width="110" height="26" as="geometry"/>
                </mxCell>
                <mxCell id="czB4FTOlfRZ4hpxABfKk-3" value="https://www.default.com" style="strokeWidth=1;shadow=0;dashed=0;align=center;html=1;shape=mxgraph.mockup.containers.anchor;rSize=0;fontSize=17;fontColor=#666666;align=left;" parent="czB4FTOlfRZ4hpxABfKk-1" vertex="1">
                    <mxGeometry x="130" y="60" width="250" height="26" as="geometry"/>
                </mxCell>
                <mxCell id="czB4FTOlfRZ4hpxABfKk-4" value="&lt;b&gt;Website Name 0&lt;/b&gt;" style="text;html=1;points=[];align=left;verticalAlign=top;spacingTop=-4;fontSize=48;fontFamily=Lucida Console;fontColor=#FFFFFF;" parent="czB4FTOlfRZ4hpxABfKk-1" vertex="1">
                    <mxGeometry x="80" y="230" width="440" height="60" as="geometry"/>
                </mxCell>
                <mxCell id="czB4FTOlfRZ4hpxABfKk-5" value="" style="group" parent="czB4FTOlfRZ4hpxABfKk-1" vertex="1" connectable="0">
                    <mxGeometry x="20" y="290" width="1010" height="40" as="geometry"/>
                </mxCell>
                <mxCell id="czB4FTOlfRZ4hpxABfKk-6" value="" style="rounded=1;whiteSpace=wrap;html=1;labelBackgroundColor=none;fillStyle=solid;fontSize=21;strokeColor=default;strokeWidth=1;fillColor=none;" parent="czB4FTOlfRZ4hpxABfKk-5" vertex="1">
                    <mxGeometry width="1010" height="40" as="geometry"/>
                </mxCell>
                <mxCell id="czB4FTOlfRZ4hpxABfKk-7" value="Home" style="rounded=0;whiteSpace=wrap;html=1;labelBackgroundColor=none;fillStyle=solid;fontSize=21;strokeColor=default;strokeWidth=1;fillColor=none;fontColor=#F7F7F7;fontStyle=1" parent="czB4FTOlfRZ4hpxABfKk-5" vertex="1">
                    <mxGeometry x="35" width="120" height="40" as="geometry"/>
                </mxCell>
                <mxCell id="czB4FTOlfRZ4hpxABfKk-8" value="Git" style="rounded=0;whiteSpace=wrap;html=1;labelBackgroundColor=none;fillStyle=solid;fontSize=21;strokeColor=default;strokeWidth=1;fillColor=none;fontColor=#F7F7F7;fontStyle=1" parent="czB4FTOlfRZ4hpxABfKk-5" vertex="1">
                    <mxGeometry x="155" width="120" height="40" as="geometry"/>
                </mxCell>
                <mxCell id="czB4FTOlfRZ4hpxABfKk-9" value="About" style="rounded=0;whiteSpace=wrap;html=1;labelBackgroundColor=none;fillStyle=solid;fontSize=21;strokeColor=default;strokeWidth=1;fillColor=none;fontColor=#F7F7F7;fontStyle=1" parent="czB4FTOlfRZ4hpxABfKk-5" vertex="1">
                    <mxGeometry x="275" width="120" height="40" as="geometry"/>
                </mxCell>
                <mxCell id="czB4FTOlfRZ4hpxABfKk-10" value="Search" style="rounded=0;whiteSpace=wrap;html=1;labelBackgroundColor=none;fillStyle=solid;fontSize=21;strokeColor=default;strokeWidth=1;fillColor=none;fontColor=#F7F7F7;fontStyle=1" parent="czB4FTOlfRZ4hpxABfKk-5" vertex="1">
                    <mxGeometry x="395" width="120" height="40" as="geometry"/>
                </mxCell>
                <mxCell id="czB4FTOlfRZ4hpxABfKk-11" value="&lt;font&gt;&amp;lt;&lt;/font&gt;" style="rounded=1;whiteSpace=wrap;html=1;labelBackgroundColor=none;fillStyle=solid;fontSize=21;fontColor=#EFEFEF;strokeColor=default;strokeWidth=1;fillColor=none;" parent="czB4FTOlfRZ4hpxABfKk-1" vertex="1">
                    <mxGeometry x="80" y="395" width="60" height="305" as="geometry"/>
                </mxCell>
                <mxCell id="czB4FTOlfRZ4hpxABfKk-12" value="&lt;font&gt;&amp;gt;&lt;/font&gt;" style="rounded=1;whiteSpace=wrap;html=1;labelBackgroundColor=none;fillStyle=solid;fontSize=21;fontColor=#EFEFEF;strokeColor=default;strokeWidth=1;fillColor=none;" parent="czB4FTOlfRZ4hpxABfKk-1" vertex="1">
                    <mxGeometry x="890" y="395" width="60" height="305" as="geometry"/>
                </mxCell>
                <mxCell id="czB4FTOlfRZ4hpxABfKk-13" value="" style="group" parent="czB4FTOlfRZ4hpxABfKk-1" vertex="1" connectable="0">
                    <mxGeometry x="170" y="375" width="690" height="350" as="geometry"/>
                </mxCell>
                <mxCell id="czB4FTOlfRZ4hpxABfKk-14" value="" style="rounded=0;whiteSpace=wrap;html=1;labelBackgroundColor=none;fillStyle=solid;fontSize=21;fontColor=#000000;strokeColor=#FFFFFF;strokeWidth=2;fillColor=none;" parent="czB4FTOlfRZ4hpxABfKk-13" vertex="1">
                    <mxGeometry width="690" height="345" as="geometry"/>
                </mxCell>
                <mxCell id="czB4FTOlfRZ4hpxABfKk-15" value="" style="verticalLabelPosition=bottom;shadow=0;dashed=0;align=center;html=1;verticalAlign=top;strokeWidth=1;shape=mxgraph.mockup.graphics.simpleIcon;strokeColor=#FFFFFF;rounded=0;labelBackgroundColor=none;fillStyle=solid;fontSize=21;fontColor=#000000;fillColor=#000000;" parent="czB4FTOlfRZ4hpxABfKk-13" vertex="1">
                    <mxGeometry x="20" y="20" width="305" height="305" as="geometry"/>
                </mxCell>
                <mxCell id="czB4FTOlfRZ4hpxABfKk-16" value="&lt;h1&gt;Repo Name&lt;/h1&gt;&lt;p&gt;&lt;br&gt;&lt;/p&gt;" style="text;html=1;strokeColor=none;fillColor=none;spacing=5;spacingTop=-20;whiteSpace=wrap;overflow=hidden;rounded=0;labelBackgroundColor=none;fillStyle=solid;fontSize=21;fontColor=#e5e7eb;" parent="czB4FTOlfRZ4hpxABfKk-13" vertex="1">
                    <mxGeometry x="350" y="20" width="280" height="80" as="geometry"/>
                </mxCell>
                <mxCell id="czB4FTOlfRZ4hpxABfKk-17" value="Lorem ipsum dolor sit amet, consectetur adipiscing elit, sed do eiusmod &lt;br style=&quot;font-size: 16px;&quot;&gt;tempor incididunt ut labore et dolore magna aliqua. Ut enim ad minim &lt;br style=&quot;font-size: 16px;&quot;&gt;veniam, quis nostrud exercitation ullamco laboris nisi ut aliquip ex ea &lt;br style=&quot;font-size: 16px;&quot;&gt;commodo consequat. Duis aute irure dolor in reprehenderit in voluptate &lt;br style=&quot;font-size: 16px;&quot;&gt;velit esse cillum dolore eu fugiat nulla pariatur.&amp;nbsp;" style="text;html=1;strokeColor=none;fillColor=none;align=left;verticalAlign=top;whiteSpace=wrap;rounded=0;fontColor=#e5e7eb;labelPosition=center;verticalLabelPosition=middle;spacingLeft=4;spacingTop=2;fontSize=16;" parent="czB4FTOlfRZ4hpxABfKk-13" vertex="1">
                    <mxGeometry x="350" y="90" width="310" height="230" as="geometry"/>
                </mxCell>
                <mxCell id="czB4FTOlfRZ4hpxABfKk-18" value="" style="rounded=1;whiteSpace=wrap;html=1;fontSize=16;fontColor=#e5e7eb;strokeColor=none;fillColor=#d4d4d4;" parent="czB4FTOlfRZ4hpxABfKk-1" vertex="1">
                    <mxGeometry x="360" y="735" width="50" height="15" as="geometry"/>
                </mxCell>
                <mxCell id="czB4FTOlfRZ4hpxABfKk-19" value="" style="rounded=1;whiteSpace=wrap;html=1;fontSize=16;fontColor=#e5e7eb;strokeColor=none;fillColor=#525252;" parent="czB4FTOlfRZ4hpxABfKk-1" vertex="1">
                    <mxGeometry x="430" y="735" width="50" height="15" as="geometry"/>
                </mxCell>
                <mxCell id="3zx8RqzfI-NeWc129olj-1" value="" style="rounded=1;whiteSpace=wrap;html=1;fontSize=16;fontColor=#e5e7eb;strokeColor=none;fillColor=#525252;" parent="czB4FTOlfRZ4hpxABfKk-1" vertex="1">
                    <mxGeometry x="500" y="735" width="50" height="15" as="geometry"/>
                </mxCell>
                <mxCell id="3zx8RqzfI-NeWc129olj-2" value="" style="rounded=1;whiteSpace=wrap;html=1;fontSize=16;fontColor=#e5e7eb;strokeColor=none;fillColor=#525252;" parent="czB4FTOlfRZ4hpxABfKk-1" vertex="1">
                    <mxGeometry x="575" y="735" width="50" height="15" as="geometry"/>
                </mxCell>
                <mxCell id="3zx8RqzfI-NeWc129olj-3" value="" style="rounded=1;whiteSpace=wrap;html=1;fontSize=16;fontColor=#e5e7eb;strokeColor=none;fillColor=#525252;" parent="czB4FTOlfRZ4hpxABfKk-1" vertex="1">
                    <mxGeometry x="645" y="735" width="50" height="15" as="geometry"/>
                </mxCell>
                <mxCell id="Wl_dKTJPg_u6n29MjquY-2" value="&lt;h1&gt;Commit Calendar&lt;/h1&gt;" style="text;html=1;strokeColor=none;fillColor=none;spacing=5;spacingTop=-20;whiteSpace=wrap;overflow=hidden;rounded=0;labelBackgroundColor=none;fillStyle=solid;fontSize=21;fontColor=#e5e7eb;" parent="czB4FTOlfRZ4hpxABfKk-1" vertex="1">
                    <mxGeometry x="333" y="810" width="385" height="80" as="geometry"/>
                </mxCell>
                <mxCell id="Wl_dKTJPg_u6n29MjquY-4" value="" style="verticalLabelPosition=bottom;shadow=0;dashed=0;align=center;html=1;verticalAlign=top;strokeWidth=1;shape=mxgraph.mockup.graphics.simpleIcon;strokeColor=#FFFFFF;rounded=0;labelBackgroundColor=none;fillStyle=solid;fontSize=21;fontColor=#000000;fillColor=#000000;" parent="czB4FTOlfRZ4hpxABfKk-1" vertex="1">
                    <mxGeometry x="103" y="890" width="845" height="220" as="geometry"/>
                </mxCell>
                <mxCell id="Wl_dKTJPg_u6n29MjquY-6" value="" style="endArrow=none;html=1;rounded=0;fontSize=16;fontColor=#e5e7eb;strokeColor=#FFFFFF;" parent="czB4FTOlfRZ4hpxABfKk-1" edge="1">
                    <mxGeometry width="50" height="50" relative="1" as="geometry">
                        <mxPoint x="15" y="1160" as="sourcePoint"/>
                        <mxPoint x="1035" y="1160" as="targetPoint"/>
                    </mxGeometry>
                </mxCell>
                <mxCell id="Wl_dKTJPg_u6n29MjquY-7" value="" style="rounded=0;whiteSpace=wrap;html=1;fillColor=none;strokeColor=#FFFFFF;strokeWidth=4;" parent="czB4FTOlfRZ4hpxABfKk-1" vertex="1">
                    <mxGeometry x="45" y="1195" width="965" height="365" as="geometry"/>
                </mxCell>
                <mxCell id="Wl_dKTJPg_u6n29MjquY-8" value="&lt;font size=&quot;1&quot; style=&quot;&quot;&gt;&lt;b style=&quot;font-size: 30px;&quot;&gt;&lt;u&gt;Repo Name&amp;nbsp; &amp;nbsp; &amp;nbsp; &amp;nbsp; &amp;nbsp; &amp;nbsp; &amp;nbsp; &amp;nbsp; &amp;nbsp; &amp;nbsp; &amp;nbsp; &amp;nbsp; &amp;nbsp; &amp;nbsp; &amp;nbsp; &amp;nbsp; &amp;nbsp; &amp;nbsp; &amp;nbsp; &amp;nbsp; &amp;nbsp; &amp;nbsp;&amp;nbsp;&lt;/u&gt;&lt;/b&gt;&lt;/font&gt;" style="text;html=1;strokeColor=none;fillColor=none;align=left;verticalAlign=middle;whiteSpace=wrap;rounded=0;" parent="czB4FTOlfRZ4hpxABfKk-1" vertex="1">
                    <mxGeometry x="80" y="1217.5" width="540" height="60" as="geometry"/>
                </mxCell>
                <mxCell id="Wl_dKTJPg_u6n29MjquY-9" value="" style="verticalLabelPosition=bottom;shadow=0;dashed=0;align=center;html=1;verticalAlign=top;strokeWidth=1;shape=mxgraph.mockup.graphics.simpleIcon;strokeColor=#FFFFFF;rounded=0;labelBackgroundColor=none;fillStyle=solid;fontSize=21;fontColor=#000000;fillColor=#000000;" parent="czB4FTOlfRZ4hpxABfKk-1" vertex="1">
                    <mxGeometry x="705" y="1217.5" width="281.43" height="282.5" as="geometry"/>
                </mxCell>
                <mxCell id="Wl_dKTJPg_u6n29MjquY-10" value="git.com/user/repoName" style="text;html=1;strokeColor=none;fillColor=none;align=center;verticalAlign=middle;whiteSpace=wrap;rounded=0;fontSize=20;" parent="czB4FTOlfRZ4hpxABfKk-1" vertex="1">
                    <mxGeometry x="715" y="1520" width="265" height="30" as="geometry"/>
                </mxCell>
                <mxCell id="Wl_dKTJPg_u6n29MjquY-12" value="Description of last commit lorem ipsum dolor" style="text;html=1;strokeColor=none;fillColor=none;align=center;verticalAlign=middle;whiteSpace=wrap;rounded=0;fontSize=16;fontColor=#FFFFFF;" parent="czB4FTOlfRZ4hpxABfKk-1" vertex="1">
                    <mxGeometry x="80" y="1470" width="330" height="30" as="geometry"/>
                </mxCell>
                <mxCell id="Wl_dKTJPg_u6n29MjquY-13" value="@userwhocommited" style="text;html=1;strokeColor=none;fillColor=none;align=center;verticalAlign=middle;whiteSpace=wrap;rounded=0;fontSize=16;fontColor=#FFFFFF;" parent="czB4FTOlfRZ4hpxABfKk-1" vertex="1">
                    <mxGeometry x="103" y="1500" width="150" height="30" as="geometry"/>
                </mxCell>
                <mxCell id="Wl_dKTJPg_u6n29MjquY-11" value="&lt;span style=&quot;color: rgb(229, 231, 235); font-size: 16px;&quot;&gt;Lorem ipsum dolor sit amet, consectetur adipiscing elit, sed do eiusmod&lt;/span&gt;&lt;br style=&quot;color: rgb(229, 231, 235); font-size: 16px;&quot;&gt;&lt;span style=&quot;color: rgb(229, 231, 235); font-size: 16px;&quot;&gt;tempor incididunt ut labore et dolore magna aliqua. Ut enim ad minim&lt;/span&gt;&lt;br style=&quot;color: rgb(229, 231, 235); font-size: 16px;&quot;&gt;&lt;span style=&quot;color: rgb(229, 231, 235); font-size: 16px;&quot;&gt;veniam, quis nostrud exercitation ullamco laboris nisi ut aliquip ex ea&lt;/span&gt;&lt;br style=&quot;color: rgb(229, 231, 235); font-size: 16px;&quot;&gt;&lt;span style=&quot;color: rgb(229, 231, 235); font-size: 16px;&quot;&gt;commodo consequat. Duis aute irure dolor in reprehenderit in voluptate&lt;/span&gt;&lt;br style=&quot;color: rgb(229, 231, 235); font-size: 16px;&quot;&gt;&lt;div style=&quot;&quot;&gt;&lt;span style=&quot;color: rgb(229, 231, 235); font-size: 16px; background-color: initial;&quot;&gt;velit esse cillum dolore eu fugiat nulla pariatur.&amp;nbsp;&lt;/span&gt;&lt;/div&gt;" style="text;html=1;strokeColor=none;fillColor=none;align=left;verticalAlign=top;whiteSpace=wrap;rounded=0;fontSize=20;" parent="czB4FTOlfRZ4hpxABfKk-1" vertex="1">
                    <mxGeometry x="80" y="1310" width="575" height="152.5" as="geometry"/>
                </mxCell>
                <mxCell id="Wl_dKTJPg_u6n29MjquY-15" value="+23" style="text;html=1;strokeColor=none;fillColor=none;align=center;verticalAlign=middle;whiteSpace=wrap;rounded=0;fontSize=16;fontColor=#FFFFFF;" parent="czB4FTOlfRZ4hpxABfKk-1" vertex="1">
                    <mxGeometry x="270" y="1500" width="60" height="30" as="geometry"/>
                </mxCell>
                <mxCell id="Wl_dKTJPg_u6n29MjquY-16" value="-123" style="text;html=1;strokeColor=none;fillColor=none;align=center;verticalAlign=middle;whiteSpace=wrap;rounded=0;fontSize=16;fontColor=#FFFFFF;" parent="czB4FTOlfRZ4hpxABfKk-1" vertex="1">
                    <mxGeometry x="337.5" y="1500" width="60" height="30" as="geometry"/>
                </mxCell>
                <mxCell id="Wl_dKTJPg_u6n29MjquY-18" value="" style="rounded=0;whiteSpace=wrap;html=1;fillColor=none;strokeColor=#FFFFFF;strokeWidth=4;" parent="czB4FTOlfRZ4hpxABfKk-1" vertex="1">
                    <mxGeometry x="45" y="1590" width="965" height="365" as="geometry"/>
                </mxCell>
                <mxCell id="Wl_dKTJPg_u6n29MjquY-19" value="&lt;font size=&quot;1&quot; style=&quot;&quot;&gt;&lt;b style=&quot;font-size: 30px;&quot;&gt;&lt;u&gt;Repo Name&amp;nbsp; &amp;nbsp; &amp;nbsp; &amp;nbsp; &amp;nbsp; &amp;nbsp; &amp;nbsp; &amp;nbsp; &amp;nbsp; &amp;nbsp; &amp;nbsp; &amp;nbsp; &amp;nbsp; &amp;nbsp; &amp;nbsp; &amp;nbsp; &amp;nbsp; &amp;nbsp; &amp;nbsp; &amp;nbsp; &amp;nbsp; &amp;nbsp;&amp;nbsp;&lt;/u&gt;&lt;/b&gt;&lt;/font&gt;" style="text;html=1;strokeColor=none;fillColor=none;align=left;verticalAlign=middle;whiteSpace=wrap;rounded=0;" parent="czB4FTOlfRZ4hpxABfKk-1" vertex="1">
                    <mxGeometry x="80" y="1612.5" width="540" height="60" as="geometry"/>
                </mxCell>
                <mxCell id="Wl_dKTJPg_u6n29MjquY-20" value="" style="verticalLabelPosition=bottom;shadow=0;dashed=0;align=center;html=1;verticalAlign=top;strokeWidth=1;shape=mxgraph.mockup.graphics.simpleIcon;strokeColor=#FFFFFF;rounded=0;labelBackgroundColor=none;fillStyle=solid;fontSize=21;fontColor=#000000;fillColor=#000000;" parent="czB4FTOlfRZ4hpxABfKk-1" vertex="1">
                    <mxGeometry x="705" y="1612.5" width="281.43" height="282.5" as="geometry"/>
                </mxCell>
                <mxCell id="Wl_dKTJPg_u6n29MjquY-21" value="git.com/user/repoName" style="text;html=1;strokeColor=none;fillColor=none;align=center;verticalAlign=middle;whiteSpace=wrap;rounded=0;fontSize=20;" parent="czB4FTOlfRZ4hpxABfKk-1" vertex="1">
                    <mxGeometry x="715" y="1915" width="265" height="30" as="geometry"/>
                </mxCell>
                <mxCell id="Wl_dKTJPg_u6n29MjquY-22" value="Description of last commit lorem ipsum dolor" style="text;html=1;strokeColor=none;fillColor=none;align=center;verticalAlign=middle;whiteSpace=wrap;rounded=0;fontSize=16;fontColor=#FFFFFF;" parent="czB4FTOlfRZ4hpxABfKk-1" vertex="1">
                    <mxGeometry x="80" y="1807.5" width="330" height="30" as="geometry"/>
                </mxCell>
                <mxCell id="Wl_dKTJPg_u6n29MjquY-23" value="@userwhocommited" style="text;html=1;strokeColor=none;fillColor=none;align=center;verticalAlign=middle;whiteSpace=wrap;rounded=0;fontSize=16;fontColor=#FFFFFF;" parent="czB4FTOlfRZ4hpxABfKk-1" vertex="1">
                    <mxGeometry x="103" y="1837.5" width="150" height="30" as="geometry"/>
                </mxCell>
                <mxCell id="Wl_dKTJPg_u6n29MjquY-24" value="&lt;span style=&quot;color: rgb(229, 231, 235); font-size: 16px;&quot;&gt;Lorem ipsum dolor sit amet, consectetur adipiscing elit, sed do eiusmod&lt;/span&gt;&lt;br style=&quot;color: rgb(229, 231, 235); font-size: 16px;&quot;&gt;&lt;span style=&quot;color: rgb(229, 231, 235); font-size: 16px;&quot;&gt;tempor incididunt ut labore et dolore magna aliqua. Ut enim ad minim&lt;/span&gt;&lt;br style=&quot;color: rgb(229, 231, 235); font-size: 16px;&quot;&gt;&lt;span style=&quot;color: rgb(229, 231, 235); font-size: 16px;&quot;&gt;veniam, quis nostrud exercitation ullamco laboris nisi ut aliquip ex ea&lt;/span&gt;&lt;br style=&quot;color: rgb(229, 231, 235); font-size: 16px;&quot;&gt;&lt;span style=&quot;color: rgb(229, 231, 235); font-size: 16px;&quot;&gt;commodo consequat. Duis aute irure dolor in reprehenderit in voluptate&lt;/span&gt;&lt;br style=&quot;color: rgb(229, 231, 235); font-size: 16px;&quot;&gt;&lt;div style=&quot;&quot;&gt;&lt;span style=&quot;color: rgb(229, 231, 235); font-size: 16px; background-color: initial;&quot;&gt;velit esse cillum dolore eu fugiat nulla pariatur.&amp;nbsp;&lt;/span&gt;&lt;/div&gt;" style="text;html=1;strokeColor=none;fillColor=none;align=left;verticalAlign=top;whiteSpace=wrap;rounded=0;fontSize=20;" parent="czB4FTOlfRZ4hpxABfKk-1" vertex="1">
                    <mxGeometry x="80" y="1655" width="575" height="152.5" as="geometry"/>
                </mxCell>
                <mxCell id="Wl_dKTJPg_u6n29MjquY-25" value="+23" style="text;html=1;strokeColor=none;fillColor=none;align=center;verticalAlign=middle;whiteSpace=wrap;rounded=0;fontSize=16;fontColor=#FFFFFF;" parent="czB4FTOlfRZ4hpxABfKk-1" vertex="1">
                    <mxGeometry x="270" y="1837.5" width="60" height="30" as="geometry"/>
                </mxCell>
                <mxCell id="Wl_dKTJPg_u6n29MjquY-26" value="-123" style="text;html=1;strokeColor=none;fillColor=none;align=center;verticalAlign=middle;whiteSpace=wrap;rounded=0;fontSize=16;fontColor=#FFFFFF;" parent="czB4FTOlfRZ4hpxABfKk-1" vertex="1">
                    <mxGeometry x="337.5" y="1837.5" width="60" height="30" as="geometry"/>
                </mxCell>
                <mxCell id="Wl_dKTJPg_u6n29MjquY-27" value="&lt;code class=&quot;bg-slate-600 py-1 px-2&quot;&gt;&lt;font style=&quot;font-size: 13px;&quot;&gt;git@github.com:User/repoName.git&lt;/font&gt;&lt;/code&gt;" style="text;html=1;strokeColor=#FFFFFF;fillColor=none;align=left;verticalAlign=middle;whiteSpace=wrap;rounded=0;fontSize=16;fontColor=#e5e7eb;fontFamily=Lucida Console;" parent="czB4FTOlfRZ4hpxABfKk-1" vertex="1">
                    <mxGeometry x="85" y="1875" width="490" height="30" as="geometry"/>
                </mxCell>
                <mxCell id="Wl_dKTJPg_u6n29MjquY-28" value="" style="rounded=0;whiteSpace=wrap;html=1;fillColor=none;strokeColor=#FFFFFF;strokeWidth=4;" parent="czB4FTOlfRZ4hpxABfKk-1" vertex="1">
                    <mxGeometry x="43" y="1980" width="965" height="430" as="geometry"/>
                </mxCell>
                <mxCell id="Wl_dKTJPg_u6n29MjquY-29" value="&lt;font size=&quot;1&quot; style=&quot;&quot;&gt;&lt;b style=&quot;font-size: 30px;&quot;&gt;&lt;u&gt;Repo Name&amp;nbsp; &amp;nbsp; &amp;nbsp; &amp;nbsp; &amp;nbsp; &amp;nbsp; &amp;nbsp; &amp;nbsp; &amp;nbsp; &amp;nbsp; &amp;nbsp; &amp;nbsp; &amp;nbsp; &amp;nbsp; &amp;nbsp; &amp;nbsp; &amp;nbsp; &amp;nbsp; &amp;nbsp; &amp;nbsp; &amp;nbsp; &amp;nbsp;&amp;nbsp;&lt;/u&gt;&lt;/b&gt;&lt;/font&gt;" style="text;html=1;strokeColor=none;fillColor=none;align=left;verticalAlign=middle;whiteSpace=wrap;rounded=0;" parent="czB4FTOlfRZ4hpxABfKk-1" vertex="1">
                    <mxGeometry x="80" y="2002.5" width="540" height="60" as="geometry"/>
                </mxCell>
                <mxCell id="Wl_dKTJPg_u6n29MjquY-30" value="" style="verticalLabelPosition=bottom;shadow=0;dashed=0;align=center;html=1;verticalAlign=top;strokeWidth=1;shape=mxgraph.mockup.graphics.simpleIcon;strokeColor=#FFFFFF;rounded=0;labelBackgroundColor=none;fillStyle=solid;fontSize=21;fontColor=#000000;fillColor=#000000;" parent="czB4FTOlfRZ4hpxABfKk-1" vertex="1">
                    <mxGeometry x="705" y="2002.5" width="281.43" height="282.5" as="geometry"/>
                </mxCell>
                <mxCell id="Wl_dKTJPg_u6n29MjquY-31" value="git.com/user/repoName" style="text;html=1;strokeColor=none;fillColor=none;align=center;verticalAlign=middle;whiteSpace=wrap;rounded=0;fontSize=20;" parent="czB4FTOlfRZ4hpxABfKk-1" vertex="1">
                    <mxGeometry x="715" y="2330" width="265" height="30" as="geometry"/>
                </mxCell>
                <mxCell id="Wl_dKTJPg_u6n29MjquY-34" value="&lt;span style=&quot;color: rgb(229, 231, 235); font-size: 16px;&quot;&gt;Lorem ipsum dolor sit amet, consectetur adipiscing elit, sed do eiusmod&lt;/span&gt;&lt;br style=&quot;color: rgb(229, 231, 235); font-size: 16px;&quot;&gt;&lt;span style=&quot;color: rgb(229, 231, 235); font-size: 16px;&quot;&gt;tempor incididunt ut labore et dolore magna aliqua. Ut enim ad minim&lt;/span&gt;&lt;br style=&quot;color: rgb(229, 231, 235); font-size: 16px;&quot;&gt;&lt;span style=&quot;color: rgb(229, 231, 235); font-size: 16px;&quot;&gt;veniam, quis nostrud exercitation ullamco laboris nisi ut aliquip ex ea&lt;/span&gt;&lt;br style=&quot;color: rgb(229, 231, 235); font-size: 16px;&quot;&gt;&lt;span style=&quot;color: rgb(229, 231, 235); font-size: 16px;&quot;&gt;commodo consequat. Duis aute irure dolor in reprehenderit in voluptate&lt;/span&gt;&lt;br style=&quot;color: rgb(229, 231, 235); font-size: 16px;&quot;&gt;&lt;div style=&quot;&quot;&gt;&lt;span style=&quot;color: rgb(229, 231, 235); font-size: 16px; background-color: initial;&quot;&gt;velit esse cillum dolore eu fugiat nulla pariatur.&amp;nbsp;&lt;/span&gt;&lt;/div&gt;" style="text;html=1;strokeColor=none;fillColor=none;align=left;verticalAlign=top;whiteSpace=wrap;rounded=0;fontSize=20;" parent="czB4FTOlfRZ4hpxABfKk-1" vertex="1">
                    <mxGeometry x="80" y="2045" width="575" height="152.5" as="geometry"/>
                </mxCell>
                <mxCell id="Wl_dKTJPg_u6n29MjquY-37" value="&lt;code class=&quot;bg-slate-600 py-1 px-2&quot;&gt;&lt;font style=&quot;font-size: 13px;&quot;&gt;git@github.com:User/repoName.git&lt;/font&gt;&lt;/code&gt;" style="text;html=1;strokeColor=#FFFFFF;fillColor=none;align=left;verticalAlign=middle;whiteSpace=wrap;rounded=0;fontSize=16;fontColor=#e5e7eb;fontFamily=Lucida Console;" parent="czB4FTOlfRZ4hpxABfKk-1" vertex="1">
                    <mxGeometry x="80" y="2190" width="550" height="30" as="geometry"/>
                </mxCell>
                <mxCell id="Wl_dKTJPg_u6n29MjquY-40" value="" style="group;strokeColor=#FFFFFF;" parent="czB4FTOlfRZ4hpxABfKk-1" vertex="1" connectable="0">
                    <mxGeometry x="75" y="2250" width="585" height="130" as="geometry"/>
                </mxCell>
                <mxCell id="Wl_dKTJPg_u6n29MjquY-41" value="" style="rounded=0;whiteSpace=wrap;html=1;fontFamily=Lucida Console;fontSize=13;fontColor=#e5e7eb;strokeColor=#FFFFFF;strokeWidth=2;fillColor=none;" parent="Wl_dKTJPg_u6n29MjquY-40" vertex="1">
                    <mxGeometry width="585" height="130" as="geometry"/>
                </mxCell>
                <mxCell id="Wl_dKTJPg_u6n29MjquY-42" value="Description of last commit lorem ipsum dolor" style="text;html=1;strokeColor=none;fillColor=none;align=left;verticalAlign=middle;whiteSpace=wrap;rounded=0;fontSize=16;" parent="Wl_dKTJPg_u6n29MjquY-40" vertex="1">
                    <mxGeometry x="9.512195121951219" y="8.666666666666668" width="428.04878048780483" height="26" as="geometry"/>
                </mxCell>
                <mxCell id="Wl_dKTJPg_u6n29MjquY-43" value="@userwhocommited" style="text;html=1;strokeColor=none;fillColor=none;align=center;verticalAlign=middle;whiteSpace=wrap;rounded=0;fontSize=16;" parent="Wl_dKTJPg_u6n29MjquY-40" vertex="1">
                    <mxGeometry x="221.15853658536585" y="34.66666666666667" width="142.6829268292683" height="26" as="geometry"/>
                </mxCell>
                <mxCell id="Wl_dKTJPg_u6n29MjquY-44" value="+23" style="text;html=1;strokeColor=#FFFFFF;fillColor=none;align=center;verticalAlign=middle;whiteSpace=wrap;rounded=0;fontSize=24;fontColor=#FFFFFF;fontStyle=1;gradientColor=none;" parent="Wl_dKTJPg_u6n29MjquY-40" vertex="1">
                    <mxGeometry x="418.5365853658536" y="9.67" width="152.1951219512195" height="50" as="geometry"/>
                </mxCell>
                <mxCell id="Wl_dKTJPg_u6n29MjquY-45" value="-123" style="text;html=1;strokeColor=#FFFFFF;fillColor=none;align=center;verticalAlign=middle;whiteSpace=wrap;rounded=0;fontSize=24;fontColor=#FFFFFF;fontStyle=1" parent="Wl_dKTJPg_u6n29MjquY-40" vertex="1">
                    <mxGeometry x="418.5365853658536" y="59.67" width="152.1951219512195" height="50" as="geometry"/>
                </mxCell>
                <mxCell id="Wl_dKTJPg_u6n29MjquY-46" value="" style="rounded=0;whiteSpace=wrap;html=1;fillColor=none;strokeColor=#FFFFFF;strokeWidth=4;" parent="czB4FTOlfRZ4hpxABfKk-1" vertex="1">
                    <mxGeometry x="43" y="2440" width="965" height="430" as="geometry"/>
                </mxCell>
                <mxCell id="Wl_dKTJPg_u6n29MjquY-47" value="&lt;font size=&quot;1&quot; style=&quot;&quot;&gt;&lt;b style=&quot;font-size: 30px;&quot;&gt;&lt;u&gt;Repo Name&amp;nbsp; &amp;nbsp; &amp;nbsp; &amp;nbsp; &amp;nbsp; &amp;nbsp; &amp;nbsp; &amp;nbsp; &amp;nbsp; &amp;nbsp; &amp;nbsp; &amp;nbsp; &amp;nbsp; &amp;nbsp; &amp;nbsp; &amp;nbsp; &amp;nbsp; &amp;nbsp; &amp;nbsp; &amp;nbsp; &amp;nbsp; &amp;nbsp;&amp;nbsp;&lt;/u&gt;&lt;/b&gt;&lt;/font&gt;" style="text;html=1;strokeColor=none;fillColor=none;align=left;verticalAlign=middle;whiteSpace=wrap;rounded=0;" parent="czB4FTOlfRZ4hpxABfKk-1" vertex="1">
                    <mxGeometry x="80" y="2462.5" width="540" height="60" as="geometry"/>
                </mxCell>
                <mxCell id="Wl_dKTJPg_u6n29MjquY-48" value="" style="verticalLabelPosition=bottom;shadow=0;dashed=0;align=center;html=1;verticalAlign=top;strokeWidth=1;shape=mxgraph.mockup.graphics.simpleIcon;strokeColor=#FFFFFF;rounded=0;labelBackgroundColor=none;fillStyle=solid;fontSize=21;fontColor=#000000;fillColor=#000000;" parent="czB4FTOlfRZ4hpxABfKk-1" vertex="1">
                    <mxGeometry x="705" y="2462.5" width="281.43" height="282.5" as="geometry"/>
                </mxCell>
                <mxCell id="Wl_dKTJPg_u6n29MjquY-49" value="git.com/user/repoName" style="text;html=1;strokeColor=none;fillColor=none;align=center;verticalAlign=middle;whiteSpace=wrap;rounded=0;fontSize=20;" parent="czB4FTOlfRZ4hpxABfKk-1" vertex="1">
                    <mxGeometry x="715" y="2790" width="265" height="30" as="geometry"/>
                </mxCell>
                <mxCell id="Wl_dKTJPg_u6n29MjquY-50" value="&lt;span style=&quot;color: rgb(229, 231, 235); font-size: 16px;&quot;&gt;Lorem ipsum dolor sit amet, consectetur adipiscing elit, sed do eiusmod&lt;/span&gt;&lt;br style=&quot;color: rgb(229, 231, 235); font-size: 16px;&quot;&gt;&lt;span style=&quot;color: rgb(229, 231, 235); font-size: 16px;&quot;&gt;tempor incididunt ut labore et dolore magna aliqua. Ut enim ad minim&lt;/span&gt;&lt;br style=&quot;color: rgb(229, 231, 235); font-size: 16px;&quot;&gt;&lt;span style=&quot;color: rgb(229, 231, 235); font-size: 16px;&quot;&gt;veniam, quis nostrud exercitation ullamco laboris nisi ut aliquip ex ea&lt;/span&gt;&lt;br style=&quot;color: rgb(229, 231, 235); font-size: 16px;&quot;&gt;&lt;span style=&quot;color: rgb(229, 231, 235); font-size: 16px;&quot;&gt;commodo consequat. Duis aute irure dolor in reprehenderit in voluptate&lt;/span&gt;&lt;br style=&quot;color: rgb(229, 231, 235); font-size: 16px;&quot;&gt;&lt;div style=&quot;&quot;&gt;&lt;span style=&quot;color: rgb(229, 231, 235); font-size: 16px; background-color: initial;&quot;&gt;velit esse cillum dolore eu fugiat nulla pariatur.&amp;nbsp;&lt;/span&gt;&lt;/div&gt;" style="text;html=1;strokeColor=none;fillColor=none;align=left;verticalAlign=top;whiteSpace=wrap;rounded=0;fontSize=20;" parent="czB4FTOlfRZ4hpxABfKk-1" vertex="1">
                    <mxGeometry x="80" y="2505" width="575" height="152.5" as="geometry"/>
                </mxCell>
                <mxCell id="Wl_dKTJPg_u6n29MjquY-51" value="&lt;code class=&quot;bg-slate-600 py-1 px-2&quot;&gt;&lt;font style=&quot;font-size: 13px;&quot;&gt;git@github.com:User/repoName.git&lt;/font&gt;&lt;/code&gt;" style="text;html=1;strokeColor=#FFFFFF;fillColor=none;align=left;verticalAlign=middle;whiteSpace=wrap;rounded=0;fontSize=16;fontColor=#e5e7eb;fontFamily=Lucida Console;" parent="czB4FTOlfRZ4hpxABfKk-1" vertex="1">
                    <mxGeometry x="80" y="2650" width="550" height="30" as="geometry"/>
                </mxCell>
                <mxCell id="Wl_dKTJPg_u6n29MjquY-52" value="" style="group;strokeColor=none;" parent="czB4FTOlfRZ4hpxABfKk-1" vertex="1" connectable="0">
                    <mxGeometry x="75" y="2710" width="585" height="130" as="geometry"/>
                </mxCell>
                <mxCell id="Wl_dKTJPg_u6n29MjquY-53" value="" style="rounded=0;whiteSpace=wrap;html=1;fontFamily=Lucida Console;fontSize=13;fontColor=#e5e7eb;strokeColor=#FFFFFF;strokeWidth=2;fillColor=none;" parent="Wl_dKTJPg_u6n29MjquY-52" vertex="1">
                    <mxGeometry width="585" height="130" as="geometry"/>
                </mxCell>
                <mxCell id="Wl_dKTJPg_u6n29MjquY-54" value="Description of last commit lorem ipsum dolor" style="text;html=1;strokeColor=none;fillColor=none;align=left;verticalAlign=middle;whiteSpace=wrap;rounded=0;fontSize=16;" parent="Wl_dKTJPg_u6n29MjquY-52" vertex="1">
                    <mxGeometry x="9.512195121951219" y="8.666666666666668" width="428.04878048780483" height="26" as="geometry"/>
                </mxCell>
                <mxCell id="Wl_dKTJPg_u6n29MjquY-55" value="@userwhocommited" style="text;html=1;strokeColor=none;fillColor=none;align=center;verticalAlign=middle;whiteSpace=wrap;rounded=0;fontSize=16;" parent="Wl_dKTJPg_u6n29MjquY-52" vertex="1">
                    <mxGeometry x="221.15853658536585" y="34.66666666666667" width="142.6829268292683" height="26" as="geometry"/>
                </mxCell>
                <mxCell id="Wl_dKTJPg_u6n29MjquY-56" value="+23" style="text;html=1;strokeColor=#FFFFFF;fillColor=none;align=center;verticalAlign=middle;whiteSpace=wrap;rounded=0;fontSize=24;fontColor=#FFFFFF;fontStyle=1;gradientColor=none;" parent="Wl_dKTJPg_u6n29MjquY-52" vertex="1">
                    <mxGeometry x="418.5365853658536" y="9.67" width="152.1951219512195" height="50" as="geometry"/>
                </mxCell>
                <mxCell id="Wl_dKTJPg_u6n29MjquY-57" value="-123" style="text;html=1;strokeColor=#FFFFFF;fillColor=none;align=center;verticalAlign=middle;whiteSpace=wrap;rounded=0;fontSize=24;fontColor=#FFFFFF;fontStyle=1" parent="Wl_dKTJPg_u6n29MjquY-52" vertex="1">
                    <mxGeometry x="418.5365853658536" y="59.67" width="152.1951219512195" height="50" as="geometry"/>
                </mxCell>
                <mxCell id="3zx8RqzfI-NeWc129olj-6" value="" style="endArrow=none;html=1;rounded=0;fontSize=16;fontColor=#e5e7eb;" parent="3zx8RqzfI-NeWc129olj-7" edge="1">
                    <mxGeometry width="50" height="50" relative="1" as="geometry">
                        <mxPoint x="15" y="780" as="sourcePoint"/>
                        <mxPoint x="1035" y="780" as="targetPoint"/>
                    </mxGeometry>
                </mxCell>
                <mxCell id="Wl_dKTJPg_u6n29MjquY-17" value="&lt;code class=&quot;bg-slate-600 py-1 px-2&quot;&gt;&lt;font style=&quot;font-size: 13px;&quot;&gt;git@github.com:User/repoName.git&lt;/font&gt;&lt;/code&gt;" style="text;html=1;strokeColor=#FFFFFF;fillColor=none;align=left;verticalAlign=middle;whiteSpace=wrap;rounded=0;fontSize=16;fontColor=#e5e7eb;fontFamily=Lucida Console;" parent="3zx8RqzfI-NeWc129olj-7" vertex="1">
                    <mxGeometry x="100" y="1270" width="490" height="30" as="geometry"/>
                </mxCell>
                <mxCell id="3uFVvwAsuR_rfjOrbgmF-1" value="Large" style="text;html=1;strokeColor=none;fillColor=none;align=center;verticalAlign=middle;whiteSpace=wrap;rounded=0;fontSize=48;fontStyle=1" vertex="1" parent="1">
                    <mxGeometry x="2610" y="-910" width="310" height="60" as="geometry"/>
                </mxCell>
                <mxCell id="3uFVvwAsuR_rfjOrbgmF-2" value="Medium" style="text;html=1;strokeColor=none;fillColor=none;align=center;verticalAlign=middle;whiteSpace=wrap;rounded=0;fontSize=48;fontStyle=1" vertex="1" parent="1">
                    <mxGeometry x="3580" y="-895" width="310" height="60" as="geometry"/>
                </mxCell>
                <mxCell id="3uFVvwAsuR_rfjOrbgmF-3" value="Small/Mobile" style="text;html=1;strokeColor=none;fillColor=none;align=center;verticalAlign=middle;whiteSpace=wrap;rounded=0;fontSize=48;fontStyle=1" vertex="1" parent="1">
                    <mxGeometry x="4345" y="-895" width="310" height="60" as="geometry"/>
                </mxCell>
                <mxCell id="D6yRexzuO-gyGSE-mgvo-2" value="" style="strokeWidth=1;shadow=0;dashed=0;align=center;html=1;shape=mxgraph.mockup.containers.browserWindow;rSize=0;strokeColor=none;mainText=,;recursiveResize=0;rounded=0;labelBackgroundColor=none;fontFamily=Verdana;fontSize=12;fillColor=#000000;rotatable=0;deletable=0;resizable=1;movable=1;" vertex="1" parent="1">
                    <mxGeometry x="3310" y="-825" width="768" height="820" as="geometry"/>
                </mxCell>
                <mxCell id="D6yRexzuO-gyGSE-mgvo-3" value="Default (Top)" style="strokeWidth=1;shadow=0;dashed=0;align=center;html=1;shape=mxgraph.mockup.containers.anchor;fontSize=17;fontColor=#666666;align=left;" vertex="1" parent="D6yRexzuO-gyGSE-mgvo-2">
                    <mxGeometry x="60" y="12" width="110" height="26" as="geometry"/>
                </mxCell>
                <mxCell id="D6yRexzuO-gyGSE-mgvo-4" value="https://www.default.com" style="strokeWidth=1;shadow=0;dashed=0;align=center;html=1;shape=mxgraph.mockup.containers.anchor;rSize=0;fontSize=17;fontColor=#666666;align=left;" vertex="1" parent="D6yRexzuO-gyGSE-mgvo-2">
                    <mxGeometry x="130" y="60" width="250" height="26" as="geometry"/>
                </mxCell>
                <mxCell id="D6yRexzuO-gyGSE-mgvo-5" value="&lt;b&gt;Website Name 0&lt;/b&gt;" style="text;html=1;points=[];align=left;verticalAlign=top;spacingTop=-4;fontSize=48;fontFamily=Lucida Console;fontColor=#FFFFFF;" vertex="1" parent="D6yRexzuO-gyGSE-mgvo-2">
                    <mxGeometry x="80" y="230" width="440" height="60" as="geometry"/>
                </mxCell>
                <mxCell id="D6yRexzuO-gyGSE-mgvo-6" value="" style="group;fillColor=#000000;strokeColor=default;fontColor=#F0F0F0;" vertex="1" connectable="0" parent="D6yRexzuO-gyGSE-mgvo-2">
                    <mxGeometry x="20" y="290" width="700" height="40" as="geometry"/>
                </mxCell>
                <mxCell id="D6yRexzuO-gyGSE-mgvo-7" value="" style="rounded=1;whiteSpace=wrap;html=1;labelBackgroundColor=none;fillStyle=solid;fontSize=21;strokeColor=default;strokeWidth=0;fillColor=#000000;fontColor=#F0F0F0;" vertex="1" parent="D6yRexzuO-gyGSE-mgvo-6">
                    <mxGeometry width="700" height="40" as="geometry"/>
                </mxCell>
                <mxCell id="D6yRexzuO-gyGSE-mgvo-8" value="Home" style="rounded=0;whiteSpace=wrap;html=1;labelBackgroundColor=none;fillStyle=solid;fontSize=21;strokeColor=default;strokeWidth=1;fillColor=#000000;fontColor=#F0F0F0;fontStyle=1" vertex="1" parent="D6yRexzuO-gyGSE-mgvo-6">
                    <mxGeometry x="24.257425742574256" width="83.16831683168316" height="40" as="geometry"/>
                </mxCell>
                <mxCell id="D6yRexzuO-gyGSE-mgvo-9" value="Git" style="rounded=0;whiteSpace=wrap;html=1;labelBackgroundColor=none;fillStyle=solid;fontSize=21;strokeColor=default;strokeWidth=1;fillColor=#000000;fontColor=#F0F0F0;fontStyle=1" vertex="1" parent="D6yRexzuO-gyGSE-mgvo-6">
                    <mxGeometry x="107.42574257425741" width="83.16831683168316" height="40" as="geometry"/>
                </mxCell>
                <mxCell id="D6yRexzuO-gyGSE-mgvo-10" value="About" style="rounded=0;whiteSpace=wrap;html=1;labelBackgroundColor=none;fillStyle=solid;fontSize=21;strokeColor=default;strokeWidth=1;fillColor=#000000;fontColor=#F0F0F0;fontStyle=1" vertex="1" parent="D6yRexzuO-gyGSE-mgvo-6">
                    <mxGeometry x="190.59405940594058" width="83.16831683168316" height="40" as="geometry"/>
                </mxCell>
                <mxCell id="D6yRexzuO-gyGSE-mgvo-11" value="Search" style="rounded=0;whiteSpace=wrap;html=1;labelBackgroundColor=none;fillStyle=solid;fontSize=21;strokeColor=default;strokeWidth=1;fillColor=#000000;fontColor=#F0F0F0;fontStyle=1" vertex="1" parent="D6yRexzuO-gyGSE-mgvo-6">
                    <mxGeometry x="273.76237623762376" width="83.16831683168316" height="40" as="geometry"/>
                </mxCell>
                <mxCell id="D6yRexzuO-gyGSE-mgvo-12" value="" style="strokeWidth=1;shadow=0;dashed=0;align=center;html=1;shape=mxgraph.mockup.containers.browserWindow;rSize=0;strokeColor=none;mainText=,;recursiveResize=0;rounded=0;labelBackgroundColor=none;fontFamily=Verdana;fontSize=12;fillColor=#000000;rotatable=0;deletable=0;resizable=1;movable=1;" vertex="1" parent="1">
                    <mxGeometry x="4180" y="-825" width="640" height="1125" as="geometry"/>
                </mxCell>
                <mxCell id="D6yRexzuO-gyGSE-mgvo-13" value="Default (Top)" style="strokeWidth=1;shadow=0;dashed=0;align=center;html=1;shape=mxgraph.mockup.containers.anchor;fontSize=17;fontColor=#666666;align=left;" vertex="1" parent="D6yRexzuO-gyGSE-mgvo-12">
                    <mxGeometry x="60" y="12" width="110" height="26" as="geometry"/>
                </mxCell>
                <mxCell id="D6yRexzuO-gyGSE-mgvo-14" value="https://www.default.com" style="strokeWidth=1;shadow=0;dashed=0;align=center;html=1;shape=mxgraph.mockup.containers.anchor;rSize=0;fontSize=17;fontColor=#666666;align=left;" vertex="1" parent="D6yRexzuO-gyGSE-mgvo-12">
                    <mxGeometry x="130" y="60" width="250" height="26" as="geometry"/>
                </mxCell>
                <mxCell id="D6yRexzuO-gyGSE-mgvo-15" value="&lt;b&gt;Website Name 0&lt;/b&gt;" style="text;html=1;points=[];align=left;verticalAlign=top;spacingTop=-4;fontSize=48;fontFamily=Lucida Console;fontColor=#FFFFFF;" vertex="1" parent="D6yRexzuO-gyGSE-mgvo-12">
                    <mxGeometry x="80" y="230" width="440" height="60" as="geometry"/>
                </mxCell>
                <mxCell id="D6yRexzuO-gyGSE-mgvo-16" value="" style="group;fillColor=#000000;strokeColor=default;fontColor=#F0F0F0;" vertex="1" connectable="0" parent="D6yRexzuO-gyGSE-mgvo-12">
                    <mxGeometry x="20" y="290" width="600" height="40" as="geometry"/>
                </mxCell>
                <mxCell id="D6yRexzuO-gyGSE-mgvo-17" value="" style="rounded=1;whiteSpace=wrap;html=1;labelBackgroundColor=none;fillStyle=solid;fontSize=21;strokeColor=default;strokeWidth=0;fillColor=#000000;fontColor=#F0F0F0;" vertex="1" parent="D6yRexzuO-gyGSE-mgvo-16">
                    <mxGeometry width="600" height="40" as="geometry"/>
                </mxCell>
                <mxCell id="D6yRexzuO-gyGSE-mgvo-18" value="Home" style="rounded=0;whiteSpace=wrap;html=1;labelBackgroundColor=none;fillStyle=solid;fontSize=21;strokeColor=default;strokeWidth=1;fillColor=#000000;fontColor=#F0F0F0;fontStyle=1" vertex="1" parent="D6yRexzuO-gyGSE-mgvo-16">
                    <mxGeometry x="20.79207920792079" width="71.28712871287128" height="40" as="geometry"/>
                </mxCell>
                <mxCell id="D6yRexzuO-gyGSE-mgvo-19" value="Git" style="rounded=0;whiteSpace=wrap;html=1;labelBackgroundColor=none;fillStyle=solid;fontSize=21;strokeColor=default;strokeWidth=1;fillColor=#000000;fontColor=#F0F0F0;fontStyle=1" vertex="1" parent="D6yRexzuO-gyGSE-mgvo-16">
                    <mxGeometry x="92.07920792079206" width="71.28712871287128" height="40" as="geometry"/>
                </mxCell>
                <mxCell id="D6yRexzuO-gyGSE-mgvo-20" value="About" style="rounded=0;whiteSpace=wrap;html=1;labelBackgroundColor=none;fillStyle=solid;fontSize=21;strokeColor=default;strokeWidth=1;fillColor=#000000;fontColor=#F0F0F0;fontStyle=1" vertex="1" parent="D6yRexzuO-gyGSE-mgvo-16">
                    <mxGeometry x="163.36633663366334" width="71.28712871287128" height="40" as="geometry"/>
                </mxCell>
                <mxCell id="D6yRexzuO-gyGSE-mgvo-21" value="Search" style="rounded=0;whiteSpace=wrap;html=1;labelBackgroundColor=none;fillStyle=solid;fontSize=21;strokeColor=default;strokeWidth=1;fillColor=#000000;fontColor=#F0F0F0;fontStyle=1" vertex="1" parent="D6yRexzuO-gyGSE-mgvo-16">
                    <mxGeometry x="234.65346534653463" width="71.28712871287128" height="40" as="geometry"/>
                </mxCell>
            </root>
        </mxGraphModel>
    </diagram>
    <diagram id="DPiRWGco_1azCkp2NUF6" name="About">
        <mxGraphModel dx="-1024" dy="1855" grid="1" gridSize="10" guides="1" tooltips="1" connect="1" arrows="1" fold="1" page="0" pageScale="1" pageWidth="1100" pageHeight="850" math="0" shadow="0">
            <root>
                <mxCell id="0"/>
                <mxCell id="1" parent="0"/>
                <mxCell id="4M6apfvKsvpxzJIzSoeS-1" value="" style="verticalLabelPosition=bottom;verticalAlign=top;html=1;shadow=0;dashed=0;strokeWidth=1;shape=mxgraph.android.phone2;strokeColor=#c0c0c0;fontSize=48;aspect=fixed;" vertex="1" parent="1">
                    <mxGeometry x="5230" y="-100" width="700" height="1365" as="geometry"/>
                </mxCell>
                <mxCell id="b17ZFysNdSp27fLnw1yl-1" value="" style="strokeWidth=1;shadow=0;dashed=0;align=center;html=1;shape=mxgraph.mockup.containers.browserWindow;rSize=0;strokeColor=#666666;mainText=,;recursiveResize=0;rounded=0;labelBackgroundColor=none;fontFamily=Verdana;fontSize=12;fillColor=#000000;rotatable=0;deletable=0;movable=0;expand=0;" parent="1" vertex="1">
                    <mxGeometry x="3325" y="15" width="1050" height="2695" as="geometry"/>
                </mxCell>
                <mxCell id="b17ZFysNdSp27fLnw1yl-2" value="About" style="strokeWidth=1;shadow=0;dashed=0;align=center;html=1;shape=mxgraph.mockup.containers.anchor;fontSize=17;fontColor=#666666;align=left;" parent="b17ZFysNdSp27fLnw1yl-1" vertex="1">
                    <mxGeometry x="60" y="12" width="110" height="26" as="geometry"/>
                </mxCell>
                <mxCell id="b17ZFysNdSp27fLnw1yl-3" value="https://www.default.com" style="strokeWidth=1;shadow=0;dashed=0;align=center;html=1;shape=mxgraph.mockup.containers.anchor;rSize=0;fontSize=17;fontColor=#666666;align=left;" parent="b17ZFysNdSp27fLnw1yl-1" vertex="1">
                    <mxGeometry x="130" y="60" width="250" height="26" as="geometry"/>
                </mxCell>
                <mxCell id="b17ZFysNdSp27fLnw1yl-4" value="&lt;b&gt;Website Name 0&lt;/b&gt;" style="text;html=1;points=[];align=left;verticalAlign=top;spacingTop=-4;fontSize=48;fontFamily=Lucida Console;fontColor=#FFFFFF;" parent="b17ZFysNdSp27fLnw1yl-1" vertex="1">
                    <mxGeometry x="80" y="230" width="440" height="60" as="geometry"/>
                </mxCell>
                <mxCell id="b17ZFysNdSp27fLnw1yl-5" value="" style="group;strokeColor=none;" parent="b17ZFysNdSp27fLnw1yl-1" vertex="1" connectable="0">
                    <mxGeometry x="20" y="290" width="1010" height="40" as="geometry"/>
                </mxCell>
                <mxCell id="b17ZFysNdSp27fLnw1yl-6" value="" style="rounded=1;whiteSpace=wrap;html=1;labelBackgroundColor=none;fillStyle=solid;fontSize=21;strokeColor=default;strokeWidth=1;fillColor=none;" parent="b17ZFysNdSp27fLnw1yl-5" vertex="1">
                    <mxGeometry width="1010" height="40" as="geometry"/>
                </mxCell>
                <mxCell id="b17ZFysNdSp27fLnw1yl-7" value="Home" style="rounded=0;whiteSpace=wrap;html=1;labelBackgroundColor=none;fillStyle=solid;fontSize=21;strokeColor=default;strokeWidth=1;fillColor=#000000;fontColor=#FFFFFF;fontStyle=1" parent="b17ZFysNdSp27fLnw1yl-5" vertex="1">
                    <mxGeometry x="35" width="120" height="40" as="geometry"/>
                </mxCell>
                <mxCell id="b17ZFysNdSp27fLnw1yl-8" value="Git" style="rounded=0;whiteSpace=wrap;html=1;labelBackgroundColor=none;fillStyle=solid;fontSize=21;strokeColor=default;strokeWidth=1;fillColor=#000000;fontColor=#FFFFFF;fontStyle=1" parent="b17ZFysNdSp27fLnw1yl-5" vertex="1">
                    <mxGeometry x="155" width="120" height="40" as="geometry"/>
                </mxCell>
                <mxCell id="b17ZFysNdSp27fLnw1yl-9" value="About" style="rounded=0;whiteSpace=wrap;html=1;labelBackgroundColor=none;fillStyle=solid;fontSize=21;strokeColor=default;strokeWidth=1;fillColor=#000000;fontColor=#FFFFFF;fontStyle=1" parent="b17ZFysNdSp27fLnw1yl-5" vertex="1">
                    <mxGeometry x="275" width="120" height="40" as="geometry"/>
                </mxCell>
                <mxCell id="b17ZFysNdSp27fLnw1yl-10" value="Search" style="rounded=0;whiteSpace=wrap;html=1;labelBackgroundColor=none;fillStyle=solid;fontSize=21;strokeColor=default;strokeWidth=1;fillColor=#000000;fontColor=#FFFFFF;fontStyle=1" parent="b17ZFysNdSp27fLnw1yl-5" vertex="1">
                    <mxGeometry x="395" width="120" height="40" as="geometry"/>
                </mxCell>
                <mxCell id="g91GniJVgzE1bV-Z8u1g-1" value="" style="verticalLabelPosition=bottom;shadow=0;dashed=0;align=center;html=1;verticalAlign=top;strokeWidth=1;shape=mxgraph.mockup.graphics.simpleIcon;strokeColor=#FFFFFF;rounded=0;labelBackgroundColor=none;fillStyle=solid;fontSize=21;fontColor=#000000;fillColor=#000000;" parent="b17ZFysNdSp27fLnw1yl-1" vertex="1">
                    <mxGeometry x="625" y="375" width="355" height="345" as="geometry"/>
                </mxCell>
                <mxCell id="g91GniJVgzE1bV-Z8u1g-2" value="&lt;h1&gt;Lorem ipsum&lt;/h1&gt;" style="text;html=1;strokeColor=none;fillColor=none;spacing=5;spacingTop=-20;whiteSpace=wrap;overflow=hidden;rounded=0;labelBackgroundColor=none;fillStyle=solid;fontSize=21;fontColor=#e5e7eb;" parent="b17ZFysNdSp27fLnw1yl-1" vertex="1">
                    <mxGeometry x="75" y="375" width="385" height="80" as="geometry"/>
                </mxCell>
                <mxCell id="g91GniJVgzE1bV-Z8u1g-3" value="&lt;span style=&quot;color: rgb(229, 231, 235); font-size: 16px;&quot;&gt;Lorem ipsum dolor sit amet, consectetur adipiscing elit, sed do eiusmod&lt;/span&gt;&lt;br style=&quot;color: rgb(229, 231, 235); font-size: 16px;&quot;&gt;&lt;span style=&quot;color: rgb(229, 231, 235); font-size: 16px;&quot;&gt;tempor incididunt ut labore et dolore magna aliqua. Ut enim ad minim&lt;/span&gt;&lt;br style=&quot;color: rgb(229, 231, 235); font-size: 16px;&quot;&gt;&lt;span style=&quot;color: rgb(229, 231, 235); font-size: 16px;&quot;&gt;veniam, quis nostrud exercitation ullamco laboris nisi ut aliquip ex ea&lt;/span&gt;&lt;br style=&quot;color: rgb(229, 231, 235); font-size: 16px;&quot;&gt;&lt;span style=&quot;color: rgb(229, 231, 235); font-size: 16px;&quot;&gt;commodo consequat. Duis aute irure dolor in reprehenderit in voluptate&lt;/span&gt;&lt;br style=&quot;color: rgb(229, 231, 235); font-size: 16px;&quot;&gt;&lt;div style=&quot;&quot;&gt;&lt;span style=&quot;color: rgb(229, 231, 235); font-size: 16px; background-color: initial;&quot;&gt;velit esse cillum dolore eu fugiat nulla pariatur.&amp;nbsp;&lt;/span&gt;&lt;/div&gt;" style="text;html=1;strokeColor=none;fillColor=none;align=left;verticalAlign=top;whiteSpace=wrap;rounded=0;fontSize=20;" parent="b17ZFysNdSp27fLnw1yl-1" vertex="1">
                    <mxGeometry x="60" y="455" width="535" height="145" as="geometry"/>
                </mxCell>
                <mxCell id="g91GniJVgzE1bV-Z8u1g-4" value="&lt;h1&gt;FAQ&lt;/h1&gt;" style="text;html=1;strokeColor=default;fillColor=none;spacing=5;spacingTop=-20;whiteSpace=wrap;overflow=hidden;rounded=0;labelBackgroundColor=none;fillStyle=solid;fontSize=21;fontColor=#e5e7eb;align=right;dashed=1;" parent="b17ZFysNdSp27fLnw1yl-1" vertex="1">
                    <mxGeometry x="50" y="775" width="930" height="80" as="geometry"/>
                </mxCell>
                <mxCell id="b9k7cF13Q02N3VwrgNhZ-2" value="Hover expands to full text&amp;nbsp;&lt;br&gt;in animation" style="strokeWidth=1;shadow=0;dashed=0;align=center;html=1;shape=mxgraph.mockup.text.callout;linkText=;textSize=17;textColor=#666666;callDir=NE;callStyle=line;fontSize=17;fontColor=#666666;align=right;verticalAlign=top;strokeColor=#666666;fillColor=#000000;" parent="b17ZFysNdSp27fLnw1yl-1" vertex="1">
                    <mxGeometry x="780" y="720" width="200" height="100" as="geometry"/>
                </mxCell>
                <mxCell id="b9k7cF13Q02N3VwrgNhZ-5" value="&lt;div style=&quot;text-align: left&quot;&gt;&lt;b style=&quot;font-size: 36px&quot;&gt;Question 1?&lt;/b&gt;&lt;/div&gt;&lt;div style=&quot;text-align: left&quot;&gt;&lt;br&gt;&lt;/div&gt;&lt;br&gt;Answer text stuff" style="rounded=0;whiteSpace=wrap;html=1;fontSize=24;strokeColor=default;fillColor=#000000;" parent="b17ZFysNdSp27fLnw1yl-1" vertex="1">
                    <mxGeometry x="95" y="885" width="345" height="405" as="geometry"/>
                </mxCell>
                <mxCell id="b9k7cF13Q02N3VwrgNhZ-8" value="&lt;div style=&quot;text-align: left&quot;&gt;&lt;b style=&quot;font-size: 36px&quot;&gt;Question 1?&lt;/b&gt;&lt;/div&gt;&lt;div style=&quot;text-align: left&quot;&gt;&lt;br&gt;&lt;/div&gt;&lt;br&gt;Answer text stuff" style="rounded=0;whiteSpace=wrap;html=1;fontSize=24;strokeColor=default;fillColor=#000000;" parent="b17ZFysNdSp27fLnw1yl-1" vertex="1">
                    <mxGeometry x="555" y="885" width="345" height="405" as="geometry"/>
                </mxCell>
                <mxCell id="b9k7cF13Q02N3VwrgNhZ-7" value="&lt;div style=&quot;text-align: left&quot;&gt;&lt;b style=&quot;font-size: 36px&quot;&gt;Question 1?&lt;/b&gt;&lt;/div&gt;&lt;div style=&quot;text-align: left&quot;&gt;&lt;br&gt;&lt;/div&gt;&lt;br&gt;Answer text stuff" style="rounded=0;whiteSpace=wrap;html=1;fontSize=24;strokeColor=default;fillColor=#000000;" parent="b17ZFysNdSp27fLnw1yl-1" vertex="1">
                    <mxGeometry x="95" y="1325" width="345" height="405" as="geometry"/>
                </mxCell>
                <mxCell id="b9k7cF13Q02N3VwrgNhZ-6" value="&lt;div style=&quot;text-align: left&quot;&gt;&lt;b style=&quot;font-size: 36px&quot;&gt;Question 1?&lt;/b&gt;&lt;/div&gt;&lt;div style=&quot;text-align: left&quot;&gt;&lt;br&gt;&lt;/div&gt;&lt;br&gt;Answer text stuff" style="rounded=0;whiteSpace=wrap;html=1;fontSize=24;strokeColor=default;fillColor=#000000;" parent="b17ZFysNdSp27fLnw1yl-1" vertex="1">
                    <mxGeometry x="555" y="1325" width="345" height="405" as="geometry"/>
                </mxCell>
                <mxCell id="fGyuTaT-BZfTqxvGBgFe-1" value="Large" style="text;html=1;strokeColor=none;fillColor=none;align=center;verticalAlign=middle;whiteSpace=wrap;rounded=0;fontSize=48;fontStyle=1" vertex="1" parent="1">
                    <mxGeometry x="3660" y="-80" width="310" height="60" as="geometry"/>
                </mxCell>
                <mxCell id="fGyuTaT-BZfTqxvGBgFe-2" value="Medium" style="text;html=1;strokeColor=none;fillColor=none;align=center;verticalAlign=middle;whiteSpace=wrap;rounded=0;fontSize=48;fontStyle=1" vertex="1" parent="1">
                    <mxGeometry x="4619" y="-50" width="310" height="60" as="geometry"/>
                </mxCell>
                <mxCell id="fGyuTaT-BZfTqxvGBgFe-3" value="Small/Mobile" style="text;html=1;strokeColor=none;fillColor=none;align=center;verticalAlign=middle;whiteSpace=wrap;rounded=0;fontSize=48;fontStyle=1" vertex="1" parent="1">
                    <mxGeometry x="5425" y="-45" width="310" height="60" as="geometry"/>
                </mxCell>
                <mxCell id="4M6apfvKsvpxzJIzSoeS-2" value="" style="strokeWidth=1;shadow=0;dashed=0;align=center;html=1;shape=mxgraph.mockup.containers.browserWindow;rSize=0;strokeColor=none;mainText=,;recursiveResize=0;rounded=0;labelBackgroundColor=none;fontFamily=Verdana;fontSize=12;fillColor=#000000;rotatable=0;deletable=0;resizable=1;movable=1;" vertex="1" parent="1">
                    <mxGeometry x="4390" y="15" width="768" height="820" as="geometry"/>
                </mxCell>
                <mxCell id="4M6apfvKsvpxzJIzSoeS-3" value="Default (Top)" style="strokeWidth=1;shadow=0;dashed=0;align=center;html=1;shape=mxgraph.mockup.containers.anchor;fontSize=17;fontColor=#666666;align=left;" vertex="1" parent="4M6apfvKsvpxzJIzSoeS-2">
                    <mxGeometry x="60" y="12" width="110" height="26" as="geometry"/>
                </mxCell>
                <mxCell id="4M6apfvKsvpxzJIzSoeS-4" value="https://www.default.com" style="strokeWidth=1;shadow=0;dashed=0;align=center;html=1;shape=mxgraph.mockup.containers.anchor;rSize=0;fontSize=17;fontColor=#666666;align=left;" vertex="1" parent="4M6apfvKsvpxzJIzSoeS-2">
                    <mxGeometry x="130" y="60" width="250" height="26" as="geometry"/>
                </mxCell>
                <mxCell id="4M6apfvKsvpxzJIzSoeS-5" value="&lt;b&gt;Website Name 0&lt;/b&gt;" style="text;html=1;points=[];align=left;verticalAlign=top;spacingTop=-4;fontSize=48;fontFamily=Lucida Console;fontColor=#FFFFFF;" vertex="1" parent="4M6apfvKsvpxzJIzSoeS-2">
                    <mxGeometry x="80" y="230" width="440" height="60" as="geometry"/>
                </mxCell>
                <mxCell id="4M6apfvKsvpxzJIzSoeS-6" value="" style="group;fillColor=#000000;strokeColor=default;fontColor=#F0F0F0;" vertex="1" connectable="0" parent="4M6apfvKsvpxzJIzSoeS-2">
                    <mxGeometry x="20" y="290" width="700" height="40" as="geometry"/>
                </mxCell>
                <mxCell id="4M6apfvKsvpxzJIzSoeS-7" value="" style="rounded=1;whiteSpace=wrap;html=1;labelBackgroundColor=none;fillStyle=solid;fontSize=21;strokeColor=default;strokeWidth=0;fillColor=#000000;fontColor=#F0F0F0;" vertex="1" parent="4M6apfvKsvpxzJIzSoeS-6">
                    <mxGeometry width="700" height="40" as="geometry"/>
                </mxCell>
                <mxCell id="4M6apfvKsvpxzJIzSoeS-8" value="Home" style="rounded=0;whiteSpace=wrap;html=1;labelBackgroundColor=none;fillStyle=solid;fontSize=21;strokeColor=default;strokeWidth=1;fillColor=#000000;fontColor=#F0F0F0;fontStyle=1" vertex="1" parent="4M6apfvKsvpxzJIzSoeS-6">
                    <mxGeometry x="24.257425742574256" width="83.16831683168316" height="40" as="geometry"/>
                </mxCell>
                <mxCell id="4M6apfvKsvpxzJIzSoeS-9" value="Git" style="rounded=0;whiteSpace=wrap;html=1;labelBackgroundColor=none;fillStyle=solid;fontSize=21;strokeColor=default;strokeWidth=1;fillColor=#000000;fontColor=#F0F0F0;fontStyle=1" vertex="1" parent="4M6apfvKsvpxzJIzSoeS-6">
                    <mxGeometry x="107.42574257425741" width="83.16831683168316" height="40" as="geometry"/>
                </mxCell>
                <mxCell id="4M6apfvKsvpxzJIzSoeS-10" value="About" style="rounded=0;whiteSpace=wrap;html=1;labelBackgroundColor=none;fillStyle=solid;fontSize=21;strokeColor=default;strokeWidth=1;fillColor=#000000;fontColor=#F0F0F0;fontStyle=1" vertex="1" parent="4M6apfvKsvpxzJIzSoeS-6">
                    <mxGeometry x="190.59405940594058" width="83.16831683168316" height="40" as="geometry"/>
                </mxCell>
                <mxCell id="4M6apfvKsvpxzJIzSoeS-11" value="Search" style="rounded=0;whiteSpace=wrap;html=1;labelBackgroundColor=none;fillStyle=solid;fontSize=21;strokeColor=default;strokeWidth=1;fillColor=#000000;fontColor=#F0F0F0;fontStyle=1" vertex="1" parent="4M6apfvKsvpxzJIzSoeS-6">
                    <mxGeometry x="273.76237623762376" width="83.16831683168316" height="40" as="geometry"/>
                </mxCell>
                <mxCell id="4M6apfvKsvpxzJIzSoeS-12" value="" style="strokeWidth=1;shadow=0;dashed=0;align=center;html=1;shape=mxgraph.mockup.containers.browserWindow;rSize=0;strokeColor=none;mainText=,;recursiveResize=0;rounded=0;labelBackgroundColor=none;fontFamily=Verdana;fontSize=12;fillColor=#000000;rotatable=0;deletable=0;resizable=1;movable=1;" vertex="1" parent="1">
                    <mxGeometry x="5260" y="15" width="640" height="1125" as="geometry"/>
                </mxCell>
                <mxCell id="4M6apfvKsvpxzJIzSoeS-13" value="Default (Top)" style="strokeWidth=1;shadow=0;dashed=0;align=center;html=1;shape=mxgraph.mockup.containers.anchor;fontSize=17;fontColor=#666666;align=left;" vertex="1" parent="4M6apfvKsvpxzJIzSoeS-12">
                    <mxGeometry x="60" y="12" width="110" height="26" as="geometry"/>
                </mxCell>
                <mxCell id="4M6apfvKsvpxzJIzSoeS-14" value="https://www.default.com" style="strokeWidth=1;shadow=0;dashed=0;align=center;html=1;shape=mxgraph.mockup.containers.anchor;rSize=0;fontSize=17;fontColor=#666666;align=left;" vertex="1" parent="4M6apfvKsvpxzJIzSoeS-12">
                    <mxGeometry x="130" y="60" width="250" height="26" as="geometry"/>
                </mxCell>
                <mxCell id="4M6apfvKsvpxzJIzSoeS-15" value="&lt;b&gt;Website Name 0&lt;/b&gt;" style="text;html=1;points=[];align=left;verticalAlign=top;spacingTop=-4;fontSize=48;fontFamily=Lucida Console;fontColor=#FFFFFF;" vertex="1" parent="4M6apfvKsvpxzJIzSoeS-12">
                    <mxGeometry x="80" y="230" width="440" height="60" as="geometry"/>
                </mxCell>
                <mxCell id="4M6apfvKsvpxzJIzSoeS-16" value="" style="group;fillColor=#000000;strokeColor=default;fontColor=#F0F0F0;" vertex="1" connectable="0" parent="4M6apfvKsvpxzJIzSoeS-12">
                    <mxGeometry x="20" y="290" width="600" height="40" as="geometry"/>
                </mxCell>
                <mxCell id="4M6apfvKsvpxzJIzSoeS-17" value="" style="rounded=1;whiteSpace=wrap;html=1;labelBackgroundColor=none;fillStyle=solid;fontSize=21;strokeColor=default;strokeWidth=0;fillColor=#000000;fontColor=#F0F0F0;" vertex="1" parent="4M6apfvKsvpxzJIzSoeS-16">
                    <mxGeometry width="600" height="40" as="geometry"/>
                </mxCell>
                <mxCell id="4M6apfvKsvpxzJIzSoeS-18" value="Home" style="rounded=0;whiteSpace=wrap;html=1;labelBackgroundColor=none;fillStyle=solid;fontSize=21;strokeColor=default;strokeWidth=1;fillColor=#000000;fontColor=#F0F0F0;fontStyle=1" vertex="1" parent="4M6apfvKsvpxzJIzSoeS-16">
                    <mxGeometry x="20.79207920792079" width="71.28712871287128" height="40" as="geometry"/>
                </mxCell>
                <mxCell id="4M6apfvKsvpxzJIzSoeS-19" value="Git" style="rounded=0;whiteSpace=wrap;html=1;labelBackgroundColor=none;fillStyle=solid;fontSize=21;strokeColor=default;strokeWidth=1;fillColor=#000000;fontColor=#F0F0F0;fontStyle=1" vertex="1" parent="4M6apfvKsvpxzJIzSoeS-16">
                    <mxGeometry x="92.07920792079206" width="71.28712871287128" height="40" as="geometry"/>
                </mxCell>
                <mxCell id="4M6apfvKsvpxzJIzSoeS-20" value="About" style="rounded=0;whiteSpace=wrap;html=1;labelBackgroundColor=none;fillStyle=solid;fontSize=21;strokeColor=default;strokeWidth=1;fillColor=#000000;fontColor=#F0F0F0;fontStyle=1" vertex="1" parent="4M6apfvKsvpxzJIzSoeS-16">
                    <mxGeometry x="163.36633663366334" width="71.28712871287128" height="40" as="geometry"/>
                </mxCell>
                <mxCell id="4M6apfvKsvpxzJIzSoeS-21" value="Search" style="rounded=0;whiteSpace=wrap;html=1;labelBackgroundColor=none;fillStyle=solid;fontSize=21;strokeColor=default;strokeWidth=1;fillColor=#000000;fontColor=#F0F0F0;fontStyle=1" vertex="1" parent="4M6apfvKsvpxzJIzSoeS-16">
                    <mxGeometry x="234.65346534653463" width="71.28712871287128" height="40" as="geometry"/>
                </mxCell>
            </root>
        </mxGraphModel>
    </diagram>
</mxfile>